<?xml version="1.0" encoding="UTF-8" standalone="no"?>
<!-- Generator: Adobe Illustrator 27.0.1, SVG Export Plug-In . SVG Version: 6.00 Build 0)  -->

<svg
   version="1.1"
   x="0px"
   y="0px"
   viewBox="0 0 750 500"
   style="enable-background:new 0 0 750 500;"
   xml:space="preserve"
   id="svg742"
   sodipodi:docname="jimtupp-02-with-logos.svg"
   inkscape:version="1.1.2 (0a00cf5, 2022-02-04)"
   xmlns:inkscape="http://www.inkscape.org/namespaces/inkscape"
   xmlns:sodipodi="http://sodipodi.sourceforge.net/DTD/sodipodi-0.dtd"
   xmlns="http://www.w3.org/2000/svg"
   xmlns:svg="http://www.w3.org/2000/svg"><defs
   id="defs746"><linearGradient
     id="linear-gradient"
     x1="120"
     y1="240"
     x2="120"
     gradientUnits="userSpaceOnUse"><stop
       offset="0"
       stop-color="#1d93d2"
       id="stop3660" /><stop
       offset="1"
       stop-color="#38b0e3"
       id="stop3662" /></linearGradient></defs><sodipodi:namedview
   id="namedview744"
   pagecolor="#505050"
   bordercolor="#eeeeee"
   borderopacity="1"
   inkscape:pageshadow="0"
   inkscape:pageopacity="0"
   inkscape:pagecheckerboard="0"
   showgrid="false"
   inkscape:snap-global="false"
   inkscape:zoom="0.775"
   inkscape:cx="310.96774"
   inkscape:cy="154.83871"
   inkscape:window-width="1920"
   inkscape:window-height="1030"
   inkscape:window-x="0"
   inkscape:window-y="26"
   inkscape:window-maximized="1"
   inkscape:current-layer="g1617" />
<style
   type="text/css"
   id="style2">
	.st0{fill:#651AE6;}
	.st1{fill:#5014B9;}
	.st2{fill:#D926AA;}
	.st3{fill:#AE1E88;}
	.st4{fill:#1FB2A6;}
	.st5{fill:#198E84;}
	.st6{fill:#191D24;}
	.st7{fill:#A6ADBB;}
	.st8{fill:#3ABFF8;}
	.st9{opacity:0.8;fill:#FFFFFF;}
	.st10{opacity:0.5;fill:#C5DDF9;}
	.st11{fill:#86B1F2;}
	.st12{fill:#355389;}
	.st13{fill:#3C8F7C;}
	.st14{fill:#50BFA5;}
	.st15{fill:#96D9C9;}
	.st16{fill:#184655;}
	.st17{fill:#29446D;}
	.st18{fill:#4E9B87;}
	.st19{fill:#1A2538;}
	.st20{fill:#302D4F;}
	.st21{fill:#1F1E3A;}
	.st22{fill:#3D3C60;}
	.st23{fill:#778293;}
	.st24{fill:#4D5A6D;}
	.st25{fill:#FFFFFF;}
	.st26{fill:#111128;}
	.st27{fill:#F99746;}
	.st28{fill:#2E3651;}
	.st29{fill:#454B69;}
	.st30{fill:#D1D1D1;}
	.st31{fill:#FFABA9;}
	.st32{fill:#F47A87;}
	.st33{fill:none;stroke:#F47A87;stroke-width:1.6232;stroke-linecap:round;stroke-miterlimit:10;}
	.st34{fill:none;stroke:#191D24;stroke-width:1.6232;stroke-linecap:round;stroke-miterlimit:10;}
	.st35{fill:#3F3F4F;}
	.st36{fill:#565661;}
	.st37{fill:#6415FF;}
	.st38{fill:#3C4A5B;}
	.st39{fill:#2E2E3D;}
	.st40{fill:#4609DB;}
	.st41{fill:#7D48FF;}
	.st42{fill:#73B471;}
	.st43{fill:#3C5CA9;}
	.st44{fill:#2A3967;}
	.st45{fill:#6B9AF9;}
	.st46{fill:#D6D6D6;}
	.st47{fill:#4709CE;}
	.st48{fill:#1E3865;}
	.st49{fill:#FFAE73;}
	.st50{fill:#E25310;}
	.st51{fill:#0D458E;}
	.st52{fill:none;stroke:#2E2E3D;stroke-width:0.3934;stroke-miterlimit:10;}
	.st53{fill:#9797A5;}
	.st54{fill:none;stroke:#9797A5;stroke-width:0.921;stroke-miterlimit:10;}
	.st55{fill:#434B55;}
	.st56{fill:#DDDDDD;}
	.st57{fill:#616C7C;}
	.st58{fill:#70707C;}
	.st59{fill:#2F343F;}
	.st60{fill:url(#SVGID_1_);}
	.st61{fill:url(#SVGID_00000157308743850963368580000008919175065990842254_);}
	.st62{fill:url(#SVGID_00000047060127823651286150000016925262899016571024_);}
	.st63{fill:url(#SVGID_00000109015049937918070340000009150422198397896111_);}
	.st64{fill:url(#SVGID_00000108267359970816462590000002391495815087263122_);}
	.st65{fill:url(#SVGID_00000053522164623547380520000001815578500053767606_);}
	.st66{fill:url(#SVGID_00000122702504553607308880000000392832210225202082_);}
	.st67{fill:url(#SVGID_00000024719919808502858900000010625747968598049962_);}
	.st68{fill:url(#SVGID_00000037687619603268772240000015405740431158909826_);}
	.st69{fill:url(#SVGID_00000174576853599287091240000013091392801954261150_);}
	.st70{fill:url(#SVGID_00000005237047103779715360000005084358013909381269_);}
	.st71{fill:url(#SVGID_00000147214879138789526040000004191881108933553839_);}
	.st72{fill:url(#SVGID_00000003079862027403344600000008316650849138817160_);}
	.st73{fill:url(#SVGID_00000163050516820799981570000002894668458791982779_);}
	.st74{fill:url(#SVGID_00000090986753050846066470000003010435119273047941_);}
	.st75{fill:url(#SVGID_00000030470048497506289760000009365018499817599373_);}
	.st76{fill:url(#SVGID_00000065787304723382823750000004672588598506621330_);}
	.st77{fill:url(#SVGID_00000089563115068989746510000010323397032977036419_);}
	.st78{fill:url(#SVGID_00000145045513581052634390000002002763443413425598_);}
	.st79{fill:url(#SVGID_00000151513740316090472320000017650323039681025955_);}
	.st80{fill:url(#SVGID_00000092454232314519887490000006927471853409256345_);}
	.st81{fill:url(#SVGID_00000175313949557869012430000012658950591869351061_);}
	.st82{fill:#E2E2E2;}
	.st83{fill:#4005C1;}
	.st84{fill:#F09959;}
	.st85{fill:#75A1DE;}
	.st86{fill:#F5CE5C;}
	.st87{fill:none;stroke:#4005C1;stroke-width:1.3463;stroke-linecap:round;stroke-miterlimit:10;}
	.st88{fill:#7A7A7A;}
	.st89{fill:#CED1D1;}
	.st90{fill:#D6E4E7;}
	.st91{fill:#1D1D1D;}
	.st92{fill:none;stroke:#F47A87;stroke-width:1.3348;stroke-linecap:round;stroke-miterlimit:10;}
	.st93{fill:none;stroke:#F47A87;stroke-width:1.1456;stroke-linecap:round;stroke-miterlimit:10;}
	.st94{fill:none;stroke:#191D24;stroke-width:1.3348;stroke-linecap:round;stroke-miterlimit:10;}
	.st95{fill:none;stroke:#F47A87;stroke-width:1.0065;stroke-linecap:round;stroke-miterlimit:10;}
	.st96{fill:none;stroke:#191D24;stroke-width:1.0065;stroke-linecap:round;stroke-miterlimit:10;}
	.st97{fill:#EAB3A2;}
	.st98{fill:#A36161;}
	.st99{fill:#7F7F50;}
	.st100{fill:#6E31F4;}
	.st101{fill:none;stroke:#778293;stroke-width:1.3463;stroke-linecap:round;stroke-miterlimit:10;}
	.st102{fill:none;stroke:#778293;stroke-width:1.3463;stroke-linecap:round;stroke-miterlimit:10;stroke-dasharray:4.8725,4.8725;}
	.st103{fill:none;stroke:#778293;stroke-width:1.3463;stroke-linecap:round;stroke-miterlimit:10;stroke-dasharray:4.803;}
</style>
<g
   id="_x31__illustration">
</g>
<g
   id="_x32__illustration">
	<path
   class="st20"
   d="M213.48,467.79c-11.91,3.87-24.05,5.76-35.95,5.85c-32.39,0.23-63.03-12.88-82.61-35.54   c-3.25-3.75-6.19-7.78-8.78-12.04c-17.76-29.19-18.02-67.82-1.32-101.28c5.09-10.19,19.98-9.17,23.63,1.61   c0,0.01,0.01,0.02,0.01,0.03c5.12,15.25,13.05,32.84,25.51,50.59c15.05,21.44,32.61,37.27,49.42,48.89   c11.17,7.72,22,13.59,31.54,18.02C225.53,448.83,224.6,464.17,213.48,467.79z"
   id="path5" />
	<path
   class="st20"
   d="M616.58,368.23c6.61-11.47,24.66-46.6,18.86-90.56c-10.48-79.48-90.02-120.65-100.99-126.11   c-4.27-21.57-13.69-49.02-35.75-71.09c-67.41-67.44-220.9-52.84-275.79,34.17c-18.81,29.82-22.55,62.61-21.41,88.85   c0.54,12.48-5.71,24.26-16.35,30.8c-19.72,12.12-48.18,35.21-53.6,70.05c-8.06,51.76,40.34,93.38,57.07,107.76   C305.1,512.24,549.28,484.98,616.58,368.23z"
   id="path7" />
	<g
   id="g207">
		<g
   id="g205">
			<g
   id="g23">
				<linearGradient
   id="SVGID_1_"
   gradientUnits="userSpaceOnUse"
   x1="393.7669"
   y1="203.4101"
   x2="393.7669"
   y2="294.5106">
					<stop
   offset="0"
   style="stop-color:#FF9D31"
   id="stop9" />
					<stop
   offset="1"
   style="stop-color:#D63191"
   id="stop11" />
				</linearGradient>
				<path
   class="st60"
   d="M431.91,280.61l-1.83-3.27c-0.04-0.08-0.08-0.15-0.12-0.24c3.26-4.13,5.84-8.85,7.52-13.97      c1.54-4.56,2.36-9.46,2.36-14.54c0-6.35-1.29-12.41-3.62-17.92c-2.25-5.33-5.47-10.13-9.43-14.19c0-0.01-0.01-0.01-0.01-0.01      c-0.61-0.62-1.23-1.23-1.87-1.82c-1.64-1.51-4.3-0.31-4.3,1.91v25.37c-0.82,0.44-1.54,1.03-2.08,1.73      c-0.89,1.14-1.4,2.55-1.4,4.04c0,0.51,0.06,1.01,0.18,1.53c0.36,1.5,1.22,2.77,2.34,3.66c1.14,0.89,2.55,1.39,4.05,1.39      c0.5,0,1.01-0.06,1.53-0.18c1.5-0.35,2.77-1.21,3.65-2.34c0.89-1.14,1.4-2.55,1.4-4.04c0-0.51-0.06-1.03-0.18-1.53      c-0.36-1.5-1.22-2.77-2.34-3.66c-0.31-0.24-0.62-0.43-0.96-0.61v-15.67c0.01,0,0.01,0,0.01,0c4.33,6.38,6.84,14.05,6.84,22.35      c0,5.13-0.97,10.04-2.75,14.54c-0.62,1.61-1.35,3.15-2.18,4.65c-1.35,2.48-2.97,4.79-4.8,6.91c0,0.01-0.01,0.01-0.03,0.03      c-0.06,0.07-0.1,0.12-0.15,0.19c-0.03,0.04-0.06,0.08-0.08,0.12c-0.03,0.04-0.07,0.1-0.1,0.15c-0.04,0.06-0.07,0.12-0.11,0.19      c0,0.01,0,0.01,0,0.01c-0.01,0.04-0.04,0.08-0.06,0.11c-0.01,0.04-0.03,0.07-0.04,0.11c-0.01,0.04-0.03,0.08-0.04,0.12      l-0.01,0.01c0,0.03-0.01,0.04-0.01,0.06c-0.01,0.04-0.03,0.1-0.04,0.14c-0.01,0.03-0.01,0.07-0.01,0.1      c-0.03,0.06-0.03,0.11-0.04,0.17c-0.01,0.04-0.01,0.08-0.03,0.14v0.04c-0.01,0.04-0.01,0.1-0.01,0.14c0,0.07,0,0.12-0.01,0.18      v0.04c0,0.07,0.01,0.12,0.01,0.19c0,0.06,0,0.11,0.01,0.17v0.03c0.01,0.03,0.01,0.06,0.01,0.1c0,0.03,0.01,0.06,0.01,0.08v0.01      c0.01,0.06,0.03,0.12,0.04,0.18c0.03,0.07,0.04,0.12,0.06,0.19c0.04,0.12,0.1,0.25,0.15,0.36v0.01c0.03,0.06,0.07,0.11,0.1,0.18      l0.06,0.1l3.99,7.16h0.01l1.64,2.94h-35.46c-2.41,0-4.76-0.21-7.05-0.62v-26.19h4.34v7.68h6.2v-7.68h4.52v7.68h6.19v-7.68h6.16      v-6.19h-6.16v-3.79h6.16v-6.19h-6.16v-3h6.16v-6.2h-6.16v-29.55c0-1.17-0.79-2.19-1.91-2.48c-1.35-0.36-3.08-0.79-4.23-1      l-0.04-0.01c-2.61-0.46-5.28-0.72-8.02-0.72c-6.35,0-12.41,1.29-17.92,3.63c-8.27,3.5-15.3,9.32-20.27,16.67      c-4.97,7.35-7.87,16.23-7.87,25.76c0,6.35,1.29,12.41,3.62,17.94c0.46,1.1,0.97,2.18,1.53,3.22c2,3.9,4.55,7.46,7.56,10.61      l1.91,1.68c1.66,1.47,4.27,0.28,4.27-1.93v-26.33c0.33-0.17,0.65-0.37,0.96-0.61c1.12-0.87,1.98-2.15,2.34-3.65      c0.12-0.51,0.18-1.03,0.18-1.53c0-1.5-0.51-2.91-1.4-4.05c-0.87-1.12-2.15-1.98-3.65-2.34c-0.51-0.12-1.03-0.18-1.53-0.18      c-1.5,0-2.91,0.51-4.05,1.4c-1.12,0.87-1.98,2.15-2.34,3.65c-0.12,0.51-0.18,1.03-0.18,1.53c0,1.5,0.51,2.91,1.4,4.05      c0.54,0.69,1.26,1.28,2.08,1.72v16.67c-2.79-4.24-4.79-9.06-5.78-14.22c-0.49-2.47-0.74-5.02-0.74-7.63      c0-5.51,1.12-10.75,3.13-15.52c3.02-7.14,8.09-13.23,14.45-17.53c6.37-4.3,14.01-6.81,22.28-6.81c2.75,0,5.42,0.28,8.02,0.8      v26.76h-4.52v-7.68h-6.2v7.68h-4.34v-7.68h-6.2v7.68h-7.12v6.2h7.12v3h-7.12v6.19h7.12v3.79h-7.12v6.19h7.12v29.1      c0,1.17,0.76,2.21,1.9,2.5c1.4,0.35,2.84,0.64,4.3,0.87c2.29,0.35,4.65,0.54,7.05,0.54h40.73c1.1,0,2.12-0.58,2.66-1.54      c0.56-0.94,0.57-2.12,0.04-3.07L431.91,280.61z M425.28,248.95c-0.28,0.36-0.65,0.61-1.12,0.72c-0.17,0.04-0.32,0.06-0.47,0.06      c-0.46,0-0.89-0.15-1.25-0.43c-0.35-0.28-0.61-0.65-0.72-1.12c-0.04-0.15-0.06-0.32-0.06-0.47c0-0.44,0.15-0.89,0.43-1.23      c0.28-0.36,0.65-0.61,1.12-0.72c0.17-0.04,0.32-0.07,0.47-0.07c0.46,0,0.89,0.17,1.25,0.44c0.35,0.28,0.61,0.65,0.72,1.12      c0.04,0.15,0.06,0.32,0.06,0.47C425.71,248.16,425.55,248.61,425.28,248.95z M361.54,247.52c0.11-0.47,0.37-0.85,0.72-1.12      c0.35-0.28,0.79-0.43,1.25-0.43c0.15,0,0.31,0.01,0.47,0.06c0.47,0.11,0.85,0.37,1.12,0.72c0.28,0.35,0.43,0.79,0.43,1.25      c0,0.15-0.01,0.31-0.06,0.47c-0.11,0.47-0.37,0.85-0.72,1.12c-0.36,0.28-0.79,0.43-1.25,0.43c-0.15,0-0.31-0.01-0.47-0.06      c-0.47-0.11-0.85-0.37-1.12-0.72c-0.28-0.36-0.43-0.79-0.43-1.25C361.48,247.84,361.5,247.69,361.54,247.52z M386.71,242.49      h15.06v12.97h-15.06V242.49z"
   id="path14" />
				
					<linearGradient
   id="SVGID_00000092452165790908230810000013156002549394155393_"
   gradientUnits="userSpaceOnUse"
   x1="394.2"
   y1="203.4101"
   x2="394.2"
   y2="294.5106">
					<stop
   offset="0"
   style="stop-color:#FF9D31"
   id="stop16" />
					<stop
   offset="1"
   style="stop-color:#D63191"
   id="stop18" />
				</linearGradient>
				
					<rect
   x="388.99"
   y="244.8"
   style="fill:url(#SVGID_00000092452165790908230810000013156002549394155393_);"
   width="10.42"
   height="8.24"
   id="rect21" />
			</g>
			
				<linearGradient
   id="SVGID_00000165228629702167988230000006630367688513521822_"
   gradientUnits="userSpaceOnUse"
   x1="404.3015"
   y1="222.7153"
   x2="409.2785"
   y2="208.4693">
				<stop
   offset="0.0391"
   style="stop-color:#000000;stop-opacity:0"
   id="stop25" />
				<stop
   offset="0.8979"
   style="stop-color:#000000;stop-opacity:0.8938"
   id="stop27" />
				<stop
   offset="1"
   style="stop-color:#000000"
   id="stop29" />
			</linearGradient>
			<path
   style="fill:url(#SVGID_00000165228629702167988230000006630367688513521822_);"
   d="M407.97,232.66v-18.61     c0-1.65-1.07-3.14-2.65-3.62c-1.16-0.35-2.34-0.65-3.54-0.9v21.34C403.88,231.14,405.92,232.04,407.97,232.66z"
   id="path32" />
			
				<linearGradient
   id="SVGID_00000031193540353576305350000012602895141512368563_"
   gradientUnits="userSpaceOnUse"
   x1="384.32"
   y1="275.9392"
   x2="379.9362"
   y2="289.958">
				<stop
   offset="0.0391"
   style="stop-color:#000000;stop-opacity:0"
   id="stop34" />
				<stop
   offset="0.8979"
   style="stop-color:#000000;stop-opacity:0.8938"
   id="stop36" />
				<stop
   offset="1"
   style="stop-color:#000000"
   id="stop38" />
			</linearGradient>
			<path
   style="fill:url(#SVGID_00000031193540353576305350000012602895141512368563_);"
   d="M380.51,268.58v14.83     c0,1.69,1.11,3.2,2.74,3.64c1.13,0.31,2.28,0.57,3.45,0.78v-17.9C384.67,269.34,382.6,268.86,380.51,268.58z"
   id="path41" />
			
				<linearGradient
   id="SVGID_00000062184779319379654860000007980732068636104840_"
   gradientUnits="userSpaceOnUse"
   x1="392.6273"
   y1="258.5485"
   x2="383.9151"
   y2="258.5485">
				<stop
   offset="0.0391"
   style="stop-color:#000000;stop-opacity:0"
   id="stop43" />
				<stop
   offset="0.8979"
   style="stop-color:#000000;stop-opacity:0.8938"
   id="stop45" />
				<stop
   offset="1"
   style="stop-color:#000000"
   id="stop47" />
			</linearGradient>
			
				<rect
   x="386.71"
   y="255.45"
   style="fill:url(#SVGID_00000062184779319379654860000007980732068636104840_);"
   width="10.86"
   height="6.19"
   id="rect50" />
			
				<linearGradient
   id="SVGID_00000118366135266471906650000006858554639943499663_"
   gradientUnits="userSpaceOnUse"
   x1="-79.3125"
   y1="637.7596"
   x2="-88.0247"
   y2="637.7596"
   gradientTransform="matrix(-1 0 0 -1 316.5391 877.1489)">
				<stop
   offset="0.0391"
   style="stop-color:#000000;stop-opacity:0"
   id="stop52" />
				<stop
   offset="0.8979"
   style="stop-color:#000000;stop-opacity:0.8938"
   id="stop54" />
				<stop
   offset="1"
   style="stop-color:#000000"
   id="stop56" />
			</linearGradient>
			<polygon
   style="fill:url(#SVGID_00000118366135266471906650000006858554639943499663_);"
   points="390.91,236.29 401.77,236.29      401.77,242.49 390.91,242.49    "
   id="polygon59" />
			
				<linearGradient
   id="SVGID_00000077299669600276957960000017884774791154401467_"
   gradientUnits="userSpaceOnUse"
   x1="352.9339"
   y1="267.2047"
   x2="363.1774"
   y2="267.2047">
				<stop
   offset="0.0391"
   style="stop-color:#000000;stop-opacity:0"
   id="stop61" />
				<stop
   offset="0.8979"
   style="stop-color:#000000;stop-opacity:0.8938"
   id="stop63" />
				<stop
   offset="1"
   style="stop-color:#000000"
   id="stop65" />
			</linearGradient>
			<path
   style="fill:url(#SVGID_00000077299669600276957960000017884774791154401467_);"
   d="M360.41,270.44v6.41     c0,1.24-1.56,1.81-2.34,0.86c-2.01-2.46-3.76-5.12-5.22-7.97l1.78-13.52C355.63,261.38,357.63,266.19,360.41,270.44z"
   id="path68" />
			
				<linearGradient
   id="SVGID_00000059284250589383866150000007355401926039719559_"
   gradientUnits="userSpaceOnUse"
   x1="421.8117"
   y1="232.4212"
   x2="429.9973"
   y2="224.0527">
				<stop
   offset="0.0391"
   style="stop-color:#000000;stop-opacity:0"
   id="stop70" />
				<stop
   offset="0.8979"
   style="stop-color:#000000;stop-opacity:0.8938"
   id="stop72" />
				<stop
   offset="1"
   style="stop-color:#000000"
   id="stop74" />
			</linearGradient>
			<path
   style="fill:url(#SVGID_00000059284250589383866150000007355401926039719559_);"
   d="M420.58,219.1v22.84     c0.49-0.26,1.01-0.49,1.58-0.62c0.51-0.12,1.02-0.18,1.52-0.18c1.1,0,2.16,0.28,3.09,0.78v-15.68     C425,223.62,422.92,221.22,420.58,219.1z"
   id="path77" />
			
				<linearGradient
   id="SVGID_00000013897845285710396050000011979414660377345172_"
   gradientUnits="userSpaceOnUse"
   x1="423.6812"
   y1="234.185"
   x2="423.6812"
   y2="245.1605">
				<stop
   offset="0.0391"
   style="stop-color:#000000;stop-opacity:0"
   id="stop79" />
				<stop
   offset="0.8979"
   style="stop-color:#000000;stop-opacity:0.8938"
   id="stop81" />
				<stop
   offset="1"
   style="stop-color:#000000"
   id="stop83" />
			</linearGradient>
			<path
   style="fill:url(#SVGID_00000013897845285710396050000011979414660377345172_);"
   d="M420.58,219.1v22.84     c0.49-0.26,1.01-0.49,1.58-0.62c0.51-0.12,1.02-0.18,1.52-0.18c1.1,0,2.16,0.28,3.09,0.78v-15.68     C425,223.62,422.92,221.22,420.58,219.1z"
   id="path86" />
			
				<linearGradient
   id="SVGID_00000114064206311421257100000008724501583228851105_"
   gradientUnits="userSpaceOnUse"
   x1="363.5081"
   y1="265.8757"
   x2="363.5081"
   y2="246.8745">
				<stop
   offset="0.0391"
   style="stop-color:#000000;stop-opacity:0"
   id="stop88" />
				<stop
   offset="0.8979"
   style="stop-color:#000000;stop-opacity:0.8938"
   id="stop90" />
				<stop
   offset="1"
   style="stop-color:#000000"
   id="stop92" />
			</linearGradient>
			<path
   style="fill:url(#SVGID_00000114064206311421257100000008724501583228851105_);"
   d="M366.6,266.9v-13.12     c-0.93,0.5-1.99,0.78-3.09,0.78c-0.5,0-1.02-0.06-1.52-0.18c-0.56-0.13-1.08-0.36-1.57-0.62v13.14H366.6z"
   id="path95" />
			
				<linearGradient
   id="SVGID_00000098908819949868149420000010965580888626051472_"
   gradientUnits="userSpaceOnUse"
   x1="413.4343"
   y1="239.3879"
   x2="405.3858"
   y2="239.3879">
				<stop
   offset="0.0391"
   style="stop-color:#000000;stop-opacity:0"
   id="stop97" />
				<stop
   offset="0.8979"
   style="stop-color:#000000;stop-opacity:0.8938"
   id="stop99" />
				<stop
   offset="1"
   style="stop-color:#000000"
   id="stop101" />
			</linearGradient>
			
				<rect
   x="407.96"
   y="236.29"
   style="fill:url(#SVGID_00000098908819949868149420000010965580888626051472_);"
   width="6.16"
   height="6.2"
   id="rect104" />
			
				<linearGradient
   id="SVGID_00000011016479364765122750000009199920914246421427_"
   gradientUnits="userSpaceOnUse"
   x1="413.4343"
   y1="248.5777"
   x2="405.3858"
   y2="248.5777">
				<stop
   offset="0.0391"
   style="stop-color:#000000;stop-opacity:0"
   id="stop106" />
				<stop
   offset="0.8979"
   style="stop-color:#000000;stop-opacity:0.8938"
   id="stop108" />
				<stop
   offset="1"
   style="stop-color:#000000"
   id="stop110" />
			</linearGradient>
			
				<rect
   x="407.96"
   y="245.48"
   style="fill:url(#SVGID_00000011016479364765122750000009199920914246421427_);"
   width="6.16"
   height="6.19"
   id="rect113" />
			
				<linearGradient
   id="SVGID_00000108301977695077630960000009399928660491889589_"
   gradientUnits="userSpaceOnUse"
   x1="413.4343"
   y1="258.5512"
   x2="405.3858"
   y2="258.5512">
				<stop
   offset="0.0391"
   style="stop-color:#000000;stop-opacity:0"
   id="stop115" />
				<stop
   offset="0.8979"
   style="stop-color:#000000;stop-opacity:0.8938"
   id="stop117" />
				<stop
   offset="1"
   style="stop-color:#000000"
   id="stop119" />
			</linearGradient>
			
				<rect
   x="407.96"
   y="255.46"
   style="fill:url(#SVGID_00000108301977695077630960000009399928660491889589_);"
   width="6.16"
   height="6.19"
   id="rect122" />
			
				<linearGradient
   id="SVGID_00000008855054034744900290000004596896970661437090_"
   gradientUnits="userSpaceOnUse"
   x1="-85.7628"
   y1="239.3879"
   x2="-93.8113"
   y2="239.3879"
   gradientTransform="matrix(-1 0 0 1 289.2806 0)">
				<stop
   offset="0.0391"
   style="stop-color:#000000;stop-opacity:0"
   id="stop124" />
				<stop
   offset="0.8979"
   style="stop-color:#000000;stop-opacity:0.8938"
   id="stop126" />
				<stop
   offset="1"
   style="stop-color:#000000"
   id="stop128" />
			</linearGradient>
			
				<rect
   x="374.35"
   y="236.29"
   style="fill:url(#SVGID_00000008855054034744900290000004596896970661437090_);"
   width="6.16"
   height="6.2"
   id="rect131" />
			
				<linearGradient
   id="SVGID_00000078042036617761675130000015195555924912896931_"
   gradientUnits="userSpaceOnUse"
   x1="-85.7628"
   y1="248.5777"
   x2="-93.8113"
   y2="248.5777"
   gradientTransform="matrix(-1 0 0 1 289.2806 0)">
				<stop
   offset="0.0391"
   style="stop-color:#000000;stop-opacity:0"
   id="stop133" />
				<stop
   offset="0.8979"
   style="stop-color:#000000;stop-opacity:0.8938"
   id="stop135" />
				<stop
   offset="1"
   style="stop-color:#000000"
   id="stop137" />
			</linearGradient>
			
				<rect
   x="374.35"
   y="245.48"
   style="fill:url(#SVGID_00000078042036617761675130000015195555924912896931_);"
   width="6.16"
   height="6.19"
   id="rect140" />
			
				<linearGradient
   id="SVGID_00000028322477257517887930000012156014613337771694_"
   gradientUnits="userSpaceOnUse"
   x1="-21.3208"
   y1="207.7986"
   x2="-29.3821"
   y2="207.7986"
   gradientTransform="matrix(0 1 -1 0 601.9551 288.4448)">
				<stop
   offset="0.0391"
   style="stop-color:#000000;stop-opacity:0"
   id="stop142" />
				<stop
   offset="0.8979"
   style="stop-color:#000000;stop-opacity:0.8938"
   id="stop144" />
				<stop
   offset="1"
   style="stop-color:#000000"
   id="stop146" />
			</linearGradient>
			<polygon
   style="fill:url(#SVGID_00000028322477257517887930000012156014613337771694_);"
   points="397.25,261.65 397.25,267.8      391.06,267.81 391.06,261.66    "
   id="polygon149" />
			
				<linearGradient
   id="SVGID_00000085954275114575829680000016734315501401612678_"
   gradientUnits="userSpaceOnUse"
   x1="-21.3295"
   y1="197.0843"
   x2="-29.378"
   y2="197.0843"
   gradientTransform="matrix(0 1 -1 0 601.9551 288.4448)">
				<stop
   offset="0.0391"
   style="stop-color:#000000;stop-opacity:0"
   id="stop151" />
				<stop
   offset="0.8979"
   style="stop-color:#000000;stop-opacity:0.8938"
   id="stop153" />
				<stop
   offset="1"
   style="stop-color:#000000"
   id="stop155" />
			</linearGradient>
			
				<rect
   x="401.78"
   y="261.65"
   style="fill:url(#SVGID_00000085954275114575829680000016734315501401612678_);"
   width="6.19"
   height="6.16"
   id="rect158" />
			
				<linearGradient
   id="SVGID_00000176740698147131478020000000186004509528638604_"
   gradientUnits="userSpaceOnUse"
   x1="346.9052"
   y1="207.8024"
   x2="338.8566"
   y2="207.8024"
   gradientTransform="matrix(4.489700e-11 -1 -1 -4.489700e-11 601.9551 577.7255)">
				<stop
   offset="0.0391"
   style="stop-color:#000000;stop-opacity:0"
   id="stop160" />
				<stop
   offset="0.8979"
   style="stop-color:#000000;stop-opacity:0.8938"
   id="stop162" />
				<stop
   offset="1"
   style="stop-color:#000000"
   id="stop164" />
			</linearGradient>
			
				<rect
   x="391.06"
   y="230.13"
   style="fill:url(#SVGID_00000176740698147131478020000000186004509528638604_);"
   width="6.19"
   height="6.16"
   id="rect167" />
			
				<linearGradient
   id="SVGID_00000068649360498147868620000012104810495541605053_"
   gradientUnits="userSpaceOnUse"
   x1="346.9052"
   y1="218.3449"
   x2="338.8566"
   y2="218.3449"
   gradientTransform="matrix(4.489700e-11 -1 -1 -4.489700e-11 601.9551 577.7255)">
				<stop
   offset="0.0391"
   style="stop-color:#000000;stop-opacity:0"
   id="stop169" />
				<stop
   offset="0.8979"
   style="stop-color:#000000;stop-opacity:0.8938"
   id="stop171" />
				<stop
   offset="1"
   style="stop-color:#000000"
   id="stop173" />
			</linearGradient>
			
				<rect
   x="380.52"
   y="230.13"
   style="fill:url(#SVGID_00000068649360498147868620000012104810495541605053_);"
   width="6.19"
   height="6.16"
   id="rect176" />
			
				<linearGradient
   id="SVGID_00000058553675586887096930000006745331858592236930_"
   gradientUnits="userSpaceOnUse"
   x1="-85.7628"
   y1="258.5512"
   x2="-93.8113"
   y2="258.5512"
   gradientTransform="matrix(-1 0 0 1 289.2806 0)">
				<stop
   offset="0.0391"
   style="stop-color:#000000;stop-opacity:0"
   id="stop178" />
				<stop
   offset="0.8979"
   style="stop-color:#000000;stop-opacity:0.8938"
   id="stop180" />
				<stop
   offset="1"
   style="stop-color:#000000"
   id="stop182" />
			</linearGradient>
			
				<rect
   x="374.35"
   y="255.46"
   style="fill:url(#SVGID_00000058553675586887096930000006745331858592236930_);"
   width="6.16"
   height="6.19"
   id="rect185" />
			
				<linearGradient
   id="SVGID_00000142148899882010732480000014952051566066036875_"
   gradientUnits="userSpaceOnUse"
   x1="421.1028"
   y1="291.8083"
   x2="433.6537"
   y2="290.7109">
				<stop
   offset="0.0391"
   style="stop-color:#000000;stop-opacity:0"
   id="stop187" />
				<stop
   offset="0.8979"
   style="stop-color:#000000;stop-opacity:0.8938"
   id="stop189" />
				<stop
   offset="1"
   style="stop-color:#000000"
   id="stop191" />
			</linearGradient>
			<path
   style="fill:url(#SVGID_00000142148899882010732480000014952051566066036875_);"
   d="M428.08,294.66h-8.81l0.46-6.2h9.49     l1.22,2.18C431.45,292.44,430.14,294.66,428.08,294.66z"
   id="path194" />
			
				<linearGradient
   id="SVGID_00000045606537887415788960000006127336973162086283_"
   gradientUnits="userSpaceOnUse"
   x1="435.1208"
   y1="269.4375"
   x2="425.5633"
   y2="270.8094">
				<stop
   offset="0.0391"
   style="stop-color:#000000;stop-opacity:0"
   id="stop196" />
				<stop
   offset="0.8979"
   style="stop-color:#000000;stop-opacity:0.8938"
   id="stop198" />
				<stop
   offset="1"
   style="stop-color:#000000"
   id="stop200" />
			</linearGradient>
			<path
   style="fill:url(#SVGID_00000045606537887415788960000006127336973162086283_);"
   d="M437.47,263.13     c-1.68,5.12-4.26,9.83-7.52,13.97c-1.2-2.24-1.72-4.75-1.55-7.22c0.08-1.26,0.53-2.46,1.09-3.6c0.51-1.03,0.97-2.07,1.39-3.15     H437.47z"
   id="path203" />
		</g>
	</g>
	<path
   class="st25"
   d="M331.88,251.43v22.79c0,2.05-1.67,3.71-3.71,3.71h-39.38c-0.79,0-1.52-0.24-2.12-0.67   c-0.96-0.66-1.6-1.78-1.6-3.05v-22.79c0-2.05,1.67-3.72,3.72-3.72h39.38c0.34,0,0.66,0.04,0.97,0.13   C330.72,248.27,331.88,249.71,331.88,251.43z"
   id="path209" />
	<path
   class="st25"
   d="M278.87,284.83v22.79c0,2.05-1.66,3.71-3.71,3.71h-39.38c-0.87,0-1.67-0.3-2.31-0.8   c-0.86-0.68-1.41-1.73-1.41-2.91v-22.79c0-2.05,1.66-3.71,3.71-3.71h39.38c0.23,0,0.46,0.02,0.68,0.06   C277.56,281.49,278.87,283.01,278.87,284.83z"
   id="path211" />
	<path
   class="st25"
   d="M331.88,288.42v22.79c0,2.05-1.67,3.71-3.71,3.71h-39.38c-2.05,0-3.72-1.66-3.72-3.71v-22.79   c0-2.05,1.67-3.71,3.72-3.71h39.38C330.22,284.71,331.88,286.37,331.88,288.42z"
   id="path213" />
	<path
   class="st25"
   d="M225.85,325.41v22.79c0,2.05-1.66,3.72-3.71,3.72h-39.38c-0.95,0-1.83-0.36-2.49-0.95   c-0.76-0.68-1.23-1.67-1.23-2.77v-22.79c0-2.05,1.67-3.71,3.72-3.71h39.38c0.12,0,0.24,0,0.36,0.02   C224.38,321.89,225.85,323.48,225.85,325.41z"
   id="path215" />
	<path
   class="st25"
   d="M278.87,322.82v22.79c0,2.05-1.66,3.72-3.71,3.72h-39.38c-2.05,0-3.71-1.67-3.71-3.72v-22.79   c0-2.05,1.66-3.71,3.71-3.71h39.38C277.2,319.11,278.87,320.77,278.87,322.82z"
   id="path217" />
	<path
   class="st25"
   d="M331.88,325.41v22.79c0,2.05-1.67,3.72-3.71,3.72h-39.38c-2.05,0-3.72-1.67-3.72-3.72v-22.79   c0-2.05,1.67-3.71,3.72-3.71h39.38C330.22,321.7,331.88,323.36,331.88,325.41z"
   id="path219" />
	<path
   class="st82"
   d="M225.85,325.41v22.79c0,2.05-1.66,3.72-3.71,3.72h-39.38c-0.95,0-1.83-0.36-2.49-0.95l42.23-29.25   C224.38,321.89,225.85,323.48,225.85,325.41z"
   id="path221" />
	<path
   class="st82"
   d="M278.87,284.83v22.79c0,2.05-1.66,3.71-3.71,3.71h-39.38c-0.87,0-1.67-0.3-2.31-0.8l42.37-29.35   C277.56,281.49,278.87,283.01,278.87,284.83z"
   id="path223" />
	<path
   class="st82"
   d="M278.87,322.82v22.79c0,2.05-1.66,3.72-3.71,3.72h-39.38c-2.05,0-3.71-1.67-3.71-3.72v-22.79   c0-2.05,1.66-3.71,3.71-3.71h39.38C277.2,319.11,278.87,320.77,278.87,322.82z"
   id="path225" />
	<path
   class="st82"
   d="M331.88,251.43v22.79c0,2.05-1.67,3.71-3.71,3.71h-39.38c-0.79,0-1.52-0.24-2.12-0.67l42.48-29.43   C330.72,248.27,331.88,249.71,331.88,251.43z"
   id="path227" />
	<path
   class="st82"
   d="M331.88,288.42v22.79c0,2.05-1.67,3.71-3.71,3.71h-39.38c-2.05,0-3.72-1.66-3.72-3.71v-22.79   c0-2.05,1.67-3.71,3.72-3.71h39.38C330.22,284.71,331.88,286.37,331.88,288.42z"
   id="path229" />
	<path
   class="st82"
   d="M331.88,325.41v22.79c0,2.05-1.67,3.72-3.71,3.72h-39.38c-2.05,0-3.72-1.67-3.72-3.72v-22.79   c0-2.05,1.67-3.71,3.72-3.71h39.38C330.22,321.7,331.88,323.36,331.88,325.41z"
   id="path231" />
	<path
   class="st25"
   d="M454.5,103.68v87.98c0,6.42,5.21,11.63,11.63,11.63h124.95c0.12,0,0.25,0,0.37-0.01   c0.96-0.02,1.9-0.17,2.79-0.42c4.15-1.16,7.35-4.57,8.23-8.82c0.1-0.47,0.17-0.94,0.2-1.43c0.03-0.31,0.04-0.62,0.04-0.94v-87.98   c0-6.42-5.21-11.63-11.63-11.63H466.13C459.7,92.05,454.5,97.26,454.5,103.68z"
   id="path233" />
	<path
   class="st25"
   d="M465.57,265.55v76.64c0,5.59,4.54,10.13,10.13,10.13h108.85c0.11,0,0.22,0,0.32-0.01   c0.84-0.02,1.65-0.15,2.43-0.37c3.61-1.01,6.4-3.98,7.17-7.68c0.09-0.41,0.15-0.82,0.18-1.25c0.02-0.27,0.03-0.54,0.03-0.82v-76.64   c0-5.59-4.54-10.13-10.13-10.13H475.7C470.11,255.42,465.57,259.96,465.57,265.55z"
   id="path235" />
	<path
   class="st0"
   d="M539.13,203.45C539.13,203.46,539.13,203.46,539.13,203.45c-0.1,0-0.2,0-0.3,0h-0.2c0,0,0,0,0-0.01   c-1.23-0.03-1.92-0.06-1.92-0.06s0-0.04,0-0.1c-0.01-0.32-0.02-1.4,0.07-2.77c0.1-1.65,0.35-3.73,0.92-5.42   c0.59,3.4,1.08,6.3,1.4,8.18C539.11,203.34,539.12,203.4,539.13,203.45z"
   id="path237" />
	<path
   class="st0"
   d="M539.13,203.45h-0.49c0,0,0,0,0-0.01c-0.06-0.08-0.69-0.97-1.85-2.92c0.1-1.65,0.35-3.73,0.92-5.42   c0.59,3.4,1.08,6.3,1.4,8.18C539.11,203.34,539.12,203.4,539.13,203.45z"
   id="path239" />
	<path
   class="st0"
   d="M602.47,194.03c-0.88,4.25-4.08,7.66-8.23,8.82c-0.77,0.16-1.68,0.3-2.79,0.42   c-3.05,0.36-7.61,0.59-14.86,0.66c-0.94,0.01-1.9,0.02-2.87,0.02c-8.58,0.04-17.99-0.11-25.16-0.26c-4.01-0.09-7.33-0.18-9.42-0.24   c0,0,0,0,0-0.01c-0.01-0.06-0.02-0.11-0.03-0.16c-0.32-1.89-0.81-4.78-1.4-8.18c-0.57,1.69-0.82,3.76-0.92,5.42   c-0.09,1.36-0.08,2.44-0.07,2.77c0,0.06,0,0.1,0,0.1s0.69,0.02,1.92,0.06c0,0,0,0.01,0,0.01h0.2c0.1,0,0.2,0,0.3,0.01   c0.02,0.09,0.03,0.17,0.04,0.26c-0.79,0.02-1.62,0.03-2.46,0.04c-1.03,0.02-1.91,0-2.67-0.03c-1.48-0.07-2.47-0.23-3.21-0.44h-7.89   c-0.37,0.34-0.75,0.59-1.26,0.59c-0.78,0-0.92-0.18-0.74-0.59h-1.99c0,0,0,0,0,0.01h-43.13c0,0,0,0,0.01-0.01   c0.2-0.35,0.44-0.76,0.74-1.26c0.58-0.97,1.83-2.19,3.42-3.51c0.11-0.09,0.22-0.18,0.34-0.28c0.47-0.38,0.97-0.78,1.49-1.18   c1.74-1.34,3.71-2.72,5.61-4.03c2.81-1.93,5.58-3.91,8.38-5.84c3.58-2.46,9.05-14.68,17.76-51.39c0.93-3.91,3.65-7.16,7.34-8.77   c7.5-3.27,15-6.54,22.5-9.8l9.26-4.76c10.31,9.52,33.27,18.55,33.27,18.55c4.01,0.9,6.64,4.83,8.59,10.59   c2.71,8.02,4.07,19.6,5.88,31.54C600.71,175.13,602.04,189.36,602.47,194.03z"
   id="path241" />
	<path
   class="st0"
   d="M539.13,203.45C539.13,203.46,539.13,203.46,539.13,203.45c-0.1,0-0.2,0-0.3,0c-0.07,0-0.14,0-0.2-0.01   c-1.23-0.03-1.92-0.06-1.92-0.06s0-0.04,0-0.1c-0.01-0.32-0.02-1.4,0.07-2.77c0.1-1.65,0.35-3.73,0.92-5.42   c0.59,3.4,1.08,6.3,1.4,8.18C539.11,203.34,539.12,203.4,539.13,203.45z"
   id="path243" />
	<path
   class="st25"
   d="M369.91,91.43v93.53c0,6.83-5.54,12.36-12.37,12.36H224.7c-0.13,0-0.26,0-0.39-0.01   c-1.03-0.02-2.02-0.18-2.96-0.45c-2.03-0.57-3.85-1.65-5.31-3.08c-0.13-0.13-0.27-0.26-0.39-0.4c-1.51-1.62-2.59-3.65-3.05-5.9   c-0.1-0.5-0.18-1.01-0.22-1.52c-0.03-0.33-0.04-0.66-0.04-1V91.43c0-6.83,5.54-12.36,12.37-12.36h132.85   C364.38,79.07,369.91,84.6,369.91,91.43z"
   id="path245" />
	<path
   d="M519.55,84.17c-3.04,14.59,6.83,25.31,6.5,24.84c-0.33-0.47,4.09-24.4,4.09-24.4L519.55,84.17z"
   id="path247" />
	<path
   class="st31"
   d="M548.66,88.79l7.24,26.45c0.2,0.75,0.03,1.54-0.46,2.14c-1.7,2.09-4.12,6.39-8.99,7.77   c-0.95,0.27-2.12,0.34-3.06,0.34c-0.99,0-1.85-0.7-2.04-1.67l-4.85-25.09L548.66,88.79z"
   id="path249" />
	<path
   class="st32"
   d="M547.28,91l-2.65,1.08l-8.13,6.65l4.37,22.25C548.27,116.37,549.35,113.25,547.28,91z"
   id="path251" />
	<path
   class="st31"
   d="M544.73,100.59c0.2,7.54-4.13,16.94-10.19,17.78c-2.26,0.32-4.12-0.65-5.14-1.17c-4.14-2.13-6.9-7.25-8.22-16   c-1.16-7.68,2.11-19.26,7.98-20.43C535.41,79.53,544.45,90.17,544.73,100.59z"
   id="path253" />
	<path
   class="st83"
   d="M539.77,194.35c0,0,2.44-4.15,7.45-4.15c5.01,0,4.64,8.18,3.91,10.87c-0.73,2.69-3.66,2.81-3.66,2.81   l-10.75-0.49L539.77,194.35z"
   id="path255" />
	<path
   class="st31"
   d="M511.71,203.29C511.71,203.29,511.71,203.29,511.71,203.29l5.54,0.01c0,0,0.01,0,0.01-0.01   c0.52-0.4,1.02-0.9,1.5-1.4c1.04-1.12,1.91-2.29,2.33-2.53c0.79-0.45,2.84-0.7,3.14-0.73c-0.16,0.03-0.84,0.28-1.79,2.19   c-0.6,1.19-1.26,1.99-1.48,2.47c-0.18,0.41-0.04,0.59,0.74,0.59c0.51,0,0.89-0.25,1.26-0.59c0.86-0.78,1.65-2.04,3.87-1.61   c1.95,0.38,2.24,1.12,4.02,1.61c0.74,0.2,1.73,0.36,3.21,0.44c0.75,0.04,1.63,0.05,2.67,0.03c0.84-0.01,1.67-0.02,2.46-0.04   c2.51-0.04,4.76-0.12,6.57-0.43c3.01-0.5,4.84-1.65,4.77-4.3c-0.12-4.52,0.38-6.78-3.91-7.57c-3.3-0.61-8.18,3.42-8.18,3.42   c-0.28-0.1-0.55-0.2-0.82-0.29c-2.09-0.73-3.85-1.24-5.36-1.6c-5.59-1.35-7.63-0.63-9.45-1.16c-5.08-1.48-6.86-0.58-9.71,6.46   c-0.44,1.08-0.9,2.3-1.4,3.68C511.46,202.53,511.49,202.97,511.71,203.29z"
   id="path257" />
	<path
   class="st6"
   d="M538.56,194.84c7.02-0.79,4.96,7.95,4.23,8.69c-0.73,0.73,3.91,0.26,3.91,0.26s2.18-3.51,0.35-7.54   s-5.5-4.21-5.5-4.21l-3.11,1.71L538.56,194.84z"
   id="path259" />
	<path
   class="st6"
   d="M545.89,194.08c-0.09,1.08-1.93,1.82-4.12,1.63c-2.18-0.18-3.88-1.21-3.79-2.29c0.09-1.08,1.93-1.82,4.11-1.63   C544.29,191.96,545.99,192.99,545.89,194.08z"
   id="path261" />
	<path
   class="st6"
   d="M545.34,193.54c-0.08,0.97-1.73,1.62-3.68,1.46c-1.95-0.16-3.46-1.08-3.38-2.05c0.08-0.97,1.73-1.62,3.68-1.46   C543.9,191.65,545.42,192.57,545.34,193.54z"
   id="path263" />
	<path
   class="st25"
   d="M544.12,193.09c-0.06,0.7-1.24,1.17-2.65,1.05c-1.4-0.12-2.49-0.78-2.44-1.47c0.06-0.7,1.24-1.17,2.65-1.05   C543.09,191.73,544.18,192.39,544.12,193.09z"
   id="path265" />
	<path
   class="st31"
   d="M480.89,195.89c5.22-2.9,11.59-1.93,13.91,0.97c2.32,2.9,2.7,4.83-2.51,4.83c-5.22,0-15.65,0.39-17.38,0.19   C473.17,201.68,480.89,195.89,480.89,195.89z"
   id="path267" />
	<path
   class="st31"
   d="M488.62,194.15c5.6-1.35,9.43,1.91,14.1,5.02c4.06,2.7,4.87,5.33,0.39,3.09c-6.57-3.28-10.43-3.67-10.43-3.67   L488.62,194.15z"
   id="path269" />
	<path
   class="st31"
   d="M483.52,195.87c-2.83,0-5.3-0.9-7.3-0.74c-2,0.17-8.32,6.66-7.32,7.16c0.07,0.04,0.15,0.07,0.23,0.1   c1.5,0.55,3.2-0.06,4.04-1.42c0.89-1.44,2.35-3.11,4.05-2.51c2.83,1,5.8,0.9,5.8,0.9L483.52,195.87z"
   id="path271" />
	<path
   class="st31"
   d="M481.86,202.84c-2.9-1.16,1.74-10.82,3.28-10.82c1.55,0,7.34,4.64,7.34,4.64s-1.36,0.77-5.99-0.77   c-1.16-0.39-2.12,6.18-3.48,6.95C481.67,203.62,481.86,202.84,481.86,202.84z"
   id="path273" />
	<path
   class="st6"
   d="M522.35,106.51c1.35,6.99,3.5,10.01,5.65,11.53c1.63,1.15,3.14,1.5,3.69,1.62c5.63,1.23,12.74-2.34,14.49-7.36   c1.93-5.55-2.73-12.77-1-13.64c0.04-0.02,0.07-0.03,0.08-0.04c0.98-0.11,2.46,2.43,5.74,5.43c0.31,0.28,2.41,2.12,2.34,1.37   c-1.03-10.2,3.47-14.43,0.02-24.22c-2.54-7.22-7.12-5.59-7.12-5.59s-4.4-5.54-13.71-2.75c-6.23,1.87-11.34,5.58-17.5,8.7   c-6.16,3.12,11.36,14.78,18.64,7.51c7.28-7.27,5.72,5.56,7.26,6.19c1.54,0.63,0.67-0.02,2.63,5.94c1.96,5.96-4.91,11.65-7.01,12.66   c-6.73,3.23-8.17,2.32-10.31-0.01C524.38,111.82,522.35,106.51,522.35,106.51z"
   id="path275" />
	<path
   class="st84"
   d="M550.96,96.61c-0.2,2.98-1.79,5.23-3.55,5.02c-1.76-0.21-2.32-2.47-2.84-5.77c-0.47-2.97,1.79-5.23,3.55-5.02   C549.88,91.04,551.15,93.63,550.96,96.61z"
   id="path277" />
	<path
   class="st7"
   d="M482.16,203.29h-40.41c-1.09,0-2.13-0.38-2.95-1.04c-0.57-0.45-1.04-1.04-1.35-1.73l-16.67-36.66   c-0.38-0.83,0.23-1.78,1.14-1.78h39.43c1.26,0,2.41,0.74,2.93,1.89l15.57,34.26l0.12,0.28l0.95,2.09l1.18,2.59L482.16,203.29   L482.16,203.29z"
   id="path279" />
	<path
   class="st7"
   d="M518.96,203.29C518.96,203.29,518.96,203.29,518.96,203.29l-77.21,0.01c-1.09,0-2.13-0.38-2.95-1.04v-4.02   h75.1c2.3,0,4.25,1.54,4.85,3.64C518.88,202.32,518.96,202.8,518.96,203.29z"
   id="path281" />
	<path
   class="st6"
   d="M477.47,203.29h-35.73c-1.09,0-2.13-0.38-2.95-1.04c-0.57-0.45-1.04-1.04-1.35-1.73l-16.67-36.66   c-0.38-0.83,0.23-1.78,1.14-1.78h34.75c1.26,0,2.41,0.74,2.93,1.89l15.57,34.26L477.47,203.29z"
   id="path283" />
	<path
   class="st6"
   d="M263.04,36.93c14.36-12.79,24.91-5.16,32.77,3.37c6.26,6.8,7.13,8.3,12.31,15.35c0.77,1.05,1.36,2.21,1.38,3.5   c0.15,7.79,4.13,40.71-0.3,52.07c-5.16,13.24-68.82,19.3-68.82,19.3L263.04,36.93z"
   id="path285" />
	<g
   id="g289">
		<path
   class="st6"
   d="M303.81,118.75c-0.35,0-0.64-0.27-0.65-0.62c-0.02-0.36,0.26-0.67,0.62-0.69c1.89-0.1,3.43-0.94,4.7-2.6    c7.14-9.25,3.12-40.12-0.37-56.91c-0.07-0.35,0.15-0.7,0.51-0.78c0.35-0.07,0.7,0.15,0.78,0.51c0.76,3.67,3.32,16.68,4.11,30.23    c0.82,13.92-0.52,23.26-3.99,27.75c-1.5,1.95-3.41,2.99-5.67,3.11C303.83,118.75,303.82,118.75,303.81,118.75z"
   id="path287" />
	</g>
	<path
   class="st6"
   d="M272.33,135.07c-0.13,7.82-0.44,15.19-0.97,21.73c-0.07,0.9-0.15,1.77-0.23,2.64   c-0.73,7.76-1.82,14.16-3.38,18.44c-0.48,1.33-1,2.45-1.58,3.35c-0.47,0.74-0.97,1.45-1.51,2.15   c-5.53,7.15-14.54,12.02-24.17,13.94H224.7c-0.13,0-0.26,0-0.39-0.01c-1.03-0.02-2.02-0.18-2.96-0.45   c-2.03-0.57-3.85-1.65-5.31-3.08c-0.13-0.13-0.26-0.27-0.39-0.4c-3.15-1.35-8.58-4.2-12.98-9.9c-7.07-9.17-6.61-19.46-6.48-23.96   c0.43-14.33,8.56-25.91,16.15-33.26c2.1-2.03,4.15-3.74,5.99-5.1c0.79-0.58,1.53-1.09,2.22-1.53c0.76-0.49,1.46-0.9,2.08-1.23   c0.83-0.43,1.63-0.89,2.4-1.36c2.98-1.82,5.54-3.9,7.76-6.2c3.58-3.68,6.27-7.91,8.4-12.46c0.29-0.62,0.56-1.24,0.83-1.86   c2.35-5.53,3.95-11.47,5.3-17.45c4.21-18.61,6.09-37.66,21.09-45.95c0,0,1.63,20.28,2.81,45.95c0.46,10.12,0.86,21.07,1.05,31.95   c0.02,0.89,0.03,1.78,0.05,2.68C272.43,120.98,272.45,128.2,272.33,135.07z"
   id="path291" />
	<g
   id="g295">
		<path
   class="st6"
   d="M194.96,150.47c-0.03,0-0.06,0-0.09-0.01c-0.36-0.05-0.61-0.38-0.56-0.74c0.02-0.18,0.63-4.53,3.38-10.29    c2.54-5.31,7.46-12.84,16.52-18.61c16.2-10.31,26.95-20.02,39.67-67.92c0.09-0.35,0.45-0.56,0.8-0.47    c0.35,0.09,0.56,0.45,0.47,0.8c-6.14,23.14-12.24,38.79-19.17,49.23c-6.44,9.7-13.07,14.36-21.06,19.45    c-16.83,10.71-19.28,27.79-19.3,27.96C195.57,150.23,195.28,150.47,194.96,150.47z"
   id="path293" />
	</g>
	<g
   id="g299">
		<path
   class="st6"
   d="M195.56,137.1c-0.12,0-0.24-0.03-0.35-0.1c-0.31-0.19-0.4-0.6-0.2-0.9c4-6.34,9.1-11.53,15.15-15.45    c22.75-14.71,26.51-23.17,45.3-71.62c0.13-0.34,0.51-0.51,0.85-0.37c0.34,0.13,0.51,0.51,0.37,0.85    c-9.39,24.22-15.01,38.41-21.15,48.47c-6.6,10.8-14.04,16.9-24.66,23.77c-5.89,3.81-10.86,8.87-14.76,15.05    C195.99,136.99,195.78,137.1,195.56,137.1z"
   id="path297" />
	</g>
	<path
   class="st31"
   d="M267.47,65.32c-9.5,19.74-8.04,37.65-8.04,37.65s1.1,6.95,5.48,8.41c4.39,1.46,10.6-2.92,10.24-8.77   c-0.37-5.85,1.46-20.11,3.66-25.22C280.99,72.27,267.47,65.32,267.47,65.32z"
   id="path301" />
	<path
   class="st31"
   d="M267.98,107.52c0,0-1.18,0.9-3.08,2.47c-0.98,0.82-2.15,1.81-3.46,2.96h0c-6.18,5.42-15.24,14.16-20.29,22.75   c-1.7,2.9-2.95,5.78-3.47,8.51c-0.5,2.6-0.89,5.07-1.17,7.63c0,0.01,0,0.02,0,0.03c-1.22,11.05-0.48,19.38-0.3,21.66   c0.26,3.16,0.36,7.32,0.1,12.91v0.01c-0.14,3.14-0.4,6.74-0.8,10.86H224.7c-0.13,0-0.26,0-0.39-0.01   c-1.03-0.02-2.02-0.18-2.96-0.45c-2.03-0.57-3.85-1.65-5.31-3.08c-0.71-7.49-0.33-18.84,0.44-39.13c0.45-12,1.94-24.61,4.08-35.03   c0.68-3.3,1.42-6.38,2.22-9.15v0c0.03-0.12,0.07-0.24,0.1-0.36c2.24-7.67,4.91-12.89,7.73-13.7c1.99-0.57,5.03-0.44,8.43-0.16   c0.97,0.08,1.97,0.18,2.98,0.27c8.01,0.72,16.83,1.43,18.55-4.14L267.98,107.52z"
   id="path303" />
	<path
   class="st31"
   d="M270,95.07c7.07,10.77,25.58,9.43,31.98,18.18c6.4,8.75,19.86,56.89,19.86,56.89l14.14-48.81   c0,0,11.47-1.93,7.74,6.06c-6.62,14.2-9.09,60.02-16.27,66.53c-7.99,7.24-15.93,1.35-20.42-11.32   c-4.34-12.26-15.15-38.71-22.89-48.81c-7.74-10.1-16.16-26.26-16.16-26.26L270,95.07z"
   id="path305" />
	<path
   class="st85"
   d="M317.63,187.58c0.18,0.05,0.28,0.07,0.28,0.07S317.8,187.65,317.63,187.58z"
   id="path307" />
	<path
   class="st0"
   d="M317.36,196.3c-1.62-0.42-8.88-2.54-10.67-7.32c-0.87-2.3-4.68-12.55-8.77-23.52v0   c-5.48-14.68-11.43-30.68-11.43-30.68l-14.16,0.29l-31.18,0.63l-4.82,0.1c0.06,5.36,0.11,10.72,0.17,16.08   c0.15,14.05,0.3,28.09,0.45,42.14v0.02c0.11,0.04,1.27,0.44,1.61,1.63c0.23,0.8-0.05,1.46-0.14,1.66c-4.58,0-9.15,0-13.73,0   c-0.13,0-0.26,0-0.39-0.01c-1.03-0.02-2.02-0.18-2.96-0.45c-2.03-0.57-3.85-1.65-5.31-3.08c-0.13-0.13-0.27-0.26-0.39-0.4   c-1.23-11.24-2.21-29.5,0.15-53.21c0.62-6.17,1.4-12.79,2.53-19.02c2.39-13.12,6.33-24.46,13.63-26.09   c2.69-0.6,5.24,0.26,7.08,1.18c0.11,0.06,0.22,0.11,0.32,0.16c0.59,0.69,1.2,1.34,1.83,1.97c6.59,6.55,15.45,10,23.71,11.62   c2.54,0.5,5.03,0.83,7.38,1.02c6.86,0.57,12.52-0.02,14.89-0.8c6.06-2.02,6.06-2.02,6.06-2.02s4.71-1.68,8.75,3.03   c4.04,4.71,13.8,34.34,15.49,41.07c1.68,6.73,4.38,17.84,4.38,17.84s-7.22,8.67-7.22,17.42C314.62,194.56,316.58,196,317.36,196.3z   "
   id="path309" />
	<path
   class="st0"
   d="M302.27,197.32h-65.03c-0.09-1.07-0.19-2.17-0.28-3.29v-0.02c-0.14-1.58-0.28-3.2-0.42-4.86   c-0.08-0.93-0.15-1.83-0.23-2.7v-0.01c-1.66-19.95-1.81-25.05-2.92-33.32c-1.22-9.08-3.53-21.42-8.35-36.09   c-0.7-2.14-1.45-4.32-2.27-6.56v0c-0.04-0.12-0.09-0.25-0.14-0.38l0.24,0.02l9.92,0.73l28.64,2.11h0l8.56,0.63l2.33,0.11l18.21,0.9   c0,0,12.29,14.02,9.31,28.04c-1.49,7-1.95,15.14-1.92,22.83v0c0.04,12.03,1.29,22.98,1.7,26.89   C299.78,193.89,300.81,195.61,302.27,197.32z"
   id="path311" />
	<path
   class="st31"
   d="M300.62,74.1c-2.28,12.06-7.56,21.79-16.48,19.95c-8.92-1.83-18.31-14.57-15.84-26.59   c2.47-12.02,11.71-20.28,20.63-18.45C297.86,50.85,303.66,58.04,300.62,74.1z"
   id="path313" />
	<path
   class="st31"
   d="M332.38,133.65c0,0-16.5,44.32-17.28,48.93c-0.79,4.6,0.79,7.52,1.23,7.52c0.45,0,14.48-24.01,14.48-24.01   L332.38,133.65z"
   id="path315" />
	<path
   class="st7"
   d="M341.42,131.23h-16.7c-1.01,0-1.74-0.98-1.45-1.95l10.54-35.35c0.19-0.64,0.78-1.08,1.45-1.08h16.7   c1.01,0,1.74,0.98,1.45,1.95l-10.54,35.35C342.68,130.79,342.09,131.23,341.42,131.23z"
   id="path317" />
	<path
   class="st6"
   d="M343.51,131.23h-16.7c-1.01,0-1.74-0.98-1.45-1.95l10.54-35.35c0.19-0.64,0.78-1.08,1.45-1.08h16.7   c1.01,0,1.74,0.98,1.45,1.95l-10.54,35.35C344.77,130.79,344.18,131.23,343.51,131.23z"
   id="path319" />
	<g
   id="g323">
		<path
   class="st25"
   d="M290.38,80.38c-0.18,0-0.37-0.01-0.55-0.04c-2.83-0.43-4.54-4.09-3.89-8.32c0.3-1.96,1.08-3.74,2.19-5.01    c1.18-1.35,2.61-1.97,4.01-1.76c2.83,0.43,4.54,4.09,3.89,8.32C295.43,77.52,293,80.38,290.38,80.38z M291.6,66.52    c-0.84,0-1.72,0.47-2.49,1.35c-0.95,1.08-1.62,2.63-1.88,4.35c-0.52,3.39,0.76,6.51,2.8,6.82c2.03,0.31,4.19-2.29,4.71-5.67    c0.52-3.39-0.76-6.51-2.8-6.82C291.83,66.53,291.71,66.52,291.6,66.52z"
   id="path321" />
	</g>
	<g
   id="g327">
		<path
   class="st25"
   d="M299.71,80.4c-0.09,0-0.18-0.01-0.27-0.02c-1.85-0.28-2.86-3.42-2.29-7.15c0.57-3.73,2.47-6.43,4.32-6.14    c0.96,0.15,1.71,1.02,2.12,2.46c0.37,1.31,0.43,2.98,0.17,4.69C303.22,77.78,301.48,80.4,299.71,80.4z M301.2,68.06    c-1.09,0-2.58,2.1-3.07,5.32c-0.51,3.34,0.36,5.85,1.46,6.02c1.11,0.16,2.68-1.97,3.19-5.31c0.24-1.58,0.19-3.09-0.14-4.27    c-0.29-1.03-0.77-1.67-1.31-1.75C301.29,68.06,301.25,68.06,301.2,68.06z"
   id="path325" />
	</g>
	<g
   id="g331">
		<path
   class="st25"
   d="M287.28,69.23c-0.06,0-0.12-0.01-0.18-0.03l-21.99-6.28c-0.35-0.1-0.55-0.46-0.45-0.81    c0.1-0.35,0.46-0.55,0.81-0.45l21.99,6.28c0.35,0.1,0.55,0.46,0.45,0.81C287.82,69.04,287.56,69.23,287.28,69.23z"
   id="path329" />
	</g>
	<path
   class="st6"
   d="M302.98,55.55c-34.04,20.05-35.91,6.58-35.91,6.58l2.02-19.15l20.2,1.12L302.98,55.55z"
   id="path333" />
	<path
   class="st31"
   d="M269.71,66.59c0.79,3.39-0.29,6.54-2.42,7.04s-4.49-1.85-5.28-5.24c-0.79-3.39,0.29-6.54,2.42-7.04   C266.55,60.85,268.92,63.2,269.71,66.59z"
   id="path335" />
	<path
   class="st86"
   d="M267.38,71.04c0,0.74-0.6,1.34-1.34,1.34c-0.74,0-1.34-0.6-1.34-1.34c0-0.74,0.6-1.34,1.34-1.34   C266.78,69.7,267.38,70.3,267.38,71.04z"
   id="path337" />
	<path
   class="st87"
   d="M234.27,141.54c0,0-0.91,28.1,1.41,54.65"
   id="path339" />
	<path
   class="st25"
   d="M336.81,30.6c-7.38-0.01-13.4,6-13.4,13.38c0,4.91,2.64,9.2,6.58,11.53c0.7,0.41,1.12,1.17,1.12,1.98v3.26   c0.13-0.05,0.27-0.08,0.42-0.08h10.51c0.15,0,0.29,0.03,0.42,0.08V57.5c0-0.82,0.44-1.58,1.15-2c3.93-2.33,6.56-6.62,6.56-11.51   C350.18,36.6,344.2,30.61,336.81,30.6z"
   id="path341" />
	<path
   class="st7"
   d="M346.13,41.37c-0.69-2.59-2.48-4.75-4.9-5.94c-0.32-0.16-0.45-0.54-0.29-0.86c0.16-0.32,0.54-0.45,0.86-0.29   c2.75,1.35,4.78,3.81,5.57,6.76c0.09,0.34-0.11,0.69-0.45,0.79C346.57,41.91,346.22,41.71,346.13,41.37z"
   id="path343" />
	<path
   class="st88"
   d="M334.2,70.07v0.47c0,1.43,1.17,2.59,2.59,2.59c1.43,0,2.59-1.17,2.59-2.59v-0.47H334.2z"
   id="path345" />
	<path
   class="st25"
   d="M320.3,44.29h-2.21c-0.35,0-0.64-0.29-0.64-0.64s0.29-0.64,0.64-0.64h2.21c0.35,0,0.64,0.29,0.64,0.64   C320.94,44,320.65,44.29,320.3,44.29z"
   id="path347" />
	<path
   class="st25"
   d="M320.93,40.21l-2.06-0.78c-0.33-0.13-0.5-0.5-0.37-0.83c0.13-0.33,0.5-0.5,0.83-0.37l2.06,0.78   c0.33,0.13,0.5,0.5,0.37,0.83C321.63,40.17,321.26,40.34,320.93,40.21z"
   id="path349" />
	<path
   class="st25"
   d="M318.49,48.69c-0.13-0.33,0.04-0.7,0.37-0.83l2.06-0.78c0.33-0.13,0.7,0.04,0.83,0.37s-0.04,0.7-0.37,0.83   l-2.06,0.78C318.99,49.18,318.62,49.02,318.49,48.69z"
   id="path351" />
	<path
   class="st25"
   d="M355.5,44.29h-2.21c-0.35,0-0.64-0.29-0.64-0.64s0.29-0.64,0.64-0.64h2.21c0.35,0,0.64,0.29,0.64,0.64   C356.14,44,355.85,44.29,355.5,44.29z"
   id="path353" />
	<path
   class="st25"
   d="M351.83,39.84c-0.13-0.33,0.04-0.7,0.37-0.83l2.06-0.78c0.33-0.13,0.7,0.04,0.83,0.37   c0.13,0.33-0.04,0.7-0.37,0.83l-2.06,0.78C352.33,40.34,351.96,40.17,351.83,39.84z"
   id="path355" />
	<path
   class="st25"
   d="M354.27,49.06l-2.06-0.78c-0.33-0.13-0.5-0.5-0.37-0.83c0.13-0.33,0.5-0.5,0.83-0.37l2.06,0.78   c0.33,0.13,0.5,0.5,0.37,0.83C354.97,49.02,354.6,49.18,354.27,49.06z"
   id="path357" />
	<path
   class="st7"
   d="M341.19,66.92h-8.8c-0.61,0-1.11,0.5-1.11,1.11v0.95c0,0.61,0.5,1.11,1.11,1.11h8.8c0.61,0,1.11-0.5,1.11-1.11   v-0.95C342.31,67.42,341.81,66.92,341.19,66.92z"
   id="path359" />
	<path
   class="st7"
   d="M342.05,63.79h-10.51c-0.61,0-1.11,0.5-1.11,1.11v0.95c0,0.61,0.5,1.11,1.11,1.11h10.51   c0.61,0,1.11-0.5,1.11-1.11V64.9C343.16,64.29,342.66,63.79,342.05,63.79z"
   id="path361" />
	<path
   class="st7"
   d="M342.05,60.65h-10.51c-0.61,0-1.11,0.5-1.11,1.11v0.95c0,0.61,0.5,1.11,1.11,1.11h10.51   c0.61,0,1.11-0.5,1.11-1.11v-0.95C343.16,61.15,342.66,60.65,342.05,60.65z"
   id="path363" />
	<rect
   x="492.04"
   y="317.6"
   width="77.71"
   height="34.95"
   id="rect365" />
	<path
   class="st23"
   d="M576.42,252.46v90.64c0,2.68-2.17,4.85-4.85,4.85h-81.34c-2.68,0-4.85-2.17-4.85-4.85v-90.64   c0-2.68,2.17-4.85,4.85-4.85h81.34C574.25,247.61,576.42,249.78,576.42,252.46z"
   id="path367" />
	<path
   class="st7"
   d="M568.21,269.8v71.52c0,1.25-1.01,2.26-2.26,2.26h-70.11c-1.25,0-2.26-1.01-2.26-2.26V269.8   c0-1.27,1.09-2.31,2.44-2.31h69.75C567.12,267.49,568.21,268.53,568.21,269.8z"
   id="path369" />
	<rect
   x="485.38"
   y="259.69"
   class="st89"
   width="91.04"
   height="1.42"
   id="rect371" />
	<g
   id="g405">
		<path
   class="st6"
   d="M564.19,285.79H497.6c-1.35,0-2.44-1.09-2.44-2.44v-10.48c0-1.35,1.09-2.44,2.44-2.44h66.59    c1.35,0,2.44,1.09,2.44,2.44v10.48C566.63,284.7,565.54,285.79,564.19,285.79z"
   id="path373" />
		<path
   class="st90"
   d="M526.16,282.93h-27.49c-0.28,0-0.51-0.23-0.51-0.51v-8.61c0-0.28,0.23-0.51,0.51-0.51h27.49    c0.28,0,0.51,0.23,0.51,0.51v8.61C526.67,282.7,526.44,282.93,526.16,282.93z"
   id="path375" />
		<g
   id="g381">
			<path
   class="st91"
   d="M524.28,277.87h-23.81c-0.28,0-0.51-0.23-0.51-0.51v-2.43c0-0.28,0.23-0.51,0.51-0.51h23.81     c0.28,0,0.51,0.23,0.51,0.51v2.43C524.79,277.64,524.57,277.87,524.28,277.87z"
   id="path377" />
			<path
   class="st37"
   d="M523.58,277.18h-22.39c-0.28,0-0.51-0.23-0.51-0.51v-1.06c0-0.28,0.23-0.51,0.51-0.51h22.39     c0.28,0,0.51,0.23,0.51,0.51v1.06C524.09,276.95,523.86,277.18,523.58,277.18z"
   id="path379" />
		</g>
		<g
   id="g387">
			<path
   class="st91"
   d="M524.28,281.96h-23.81c-0.28,0-0.51-0.23-0.51-0.51v-2.43c0-0.28,0.23-0.51,0.51-0.51h23.81     c0.28,0,0.51,0.23,0.51,0.51v2.43C524.79,281.73,524.57,281.96,524.28,281.96z"
   id="path383" />
			<path
   class="st37"
   d="M523.58,281.27h-22.39c-0.28,0-0.51-0.23-0.51-0.51v-1.06c0-0.28,0.23-0.51,0.51-0.51h22.39     c0.28,0,0.51,0.23,0.51,0.51v1.06C524.09,281.05,523.86,281.27,523.58,281.27z"
   id="path385" />
		</g>
		<path
   class="st37"
   d="M562.84,282.93h-2.44c-0.13,0-0.24-0.11-0.24-0.24v-9.15c0-0.13,0.11-0.24,0.24-0.24h2.44    c0.13,0,0.24,0.11,0.24,0.24v9.15C563.08,282.82,562.97,282.93,562.84,282.93z"
   id="path389" />
		<path
   class="st37"
   d="M557.02,275.85H545.1c-0.13,0-0.24-0.11-0.24-0.24v-2.07c0-0.13,0.11-0.24,0.24-0.24h11.92    c0.13,0,0.24,0.11,0.24,0.24v2.07C557.26,275.74,557.15,275.85,557.02,275.85z"
   id="path391" />
		<path
   class="st37"
   d="M542.29,275.85h-11.92c-0.13,0-0.24-0.11-0.24-0.24v-2.07c0-0.13,0.11-0.24,0.24-0.24h11.92    c0.13,0,0.24,0.11,0.24,0.24v2.07C542.53,275.74,542.42,275.85,542.29,275.85z"
   id="path393" />
		<g
   id="g403">
			<path
   class="st37"
   d="M532.58,282.93h-2.21c-0.13,0-0.24-0.11-0.24-0.24v-2.21c0-0.13,0.11-0.24,0.24-0.24h2.21     c0.13,0,0.24,0.11,0.24,0.24v2.21C532.82,282.82,532.71,282.93,532.58,282.93z"
   id="path395" />
			<rect
   x="535.04"
   y="280.23"
   class="st37"
   width="2.69"
   height="2.69"
   id="rect397" />
			<path
   class="st37"
   d="M542.4,282.93h-2.21c-0.13,0-0.24-0.11-0.24-0.24v-2.21c0-0.13,0.11-0.24,0.24-0.24h2.21     c0.13,0,0.24,0.11,0.24,0.24v2.21C542.64,282.82,542.53,282.93,542.4,282.93z"
   id="path399" />
			<path
   class="st37"
   d="M547.31,282.93h-2.21c-0.13,0-0.24-0.11-0.24-0.24v-2.21c0-0.13,0.11-0.24,0.24-0.24h2.21     c0.13,0,0.24,0.11,0.24,0.24v2.21C547.55,282.82,547.44,282.93,547.31,282.93z"
   id="path401" />
		</g>
	</g>
	<g
   id="g439">
		<path
   class="st6"
   d="M564.19,303.87H497.6c-1.35,0-2.44-1.09-2.44-2.44v-10.48c0-1.35,1.09-2.44,2.44-2.44h66.59    c1.35,0,2.44,1.09,2.44,2.44v10.48C566.63,302.78,565.54,303.87,564.19,303.87z"
   id="path407" />
		<path
   class="st90"
   d="M526.16,301.01h-27.49c-0.28,0-0.51-0.23-0.51-0.51v-8.61c0-0.28,0.23-0.51,0.51-0.51h27.49    c0.28,0,0.51,0.23,0.51,0.51v8.61C526.67,300.78,526.44,301.01,526.16,301.01z"
   id="path409" />
		<g
   id="g415">
			<path
   class="st91"
   d="M524.28,295.95h-23.81c-0.28,0-0.51-0.23-0.51-0.51v-2.43c0-0.28,0.23-0.51,0.51-0.51h23.81     c0.28,0,0.51,0.23,0.51,0.51v2.43C524.79,295.72,524.57,295.95,524.28,295.95z"
   id="path411" />
			<path
   class="st37"
   d="M523.58,295.27h-22.39c-0.28,0-0.51-0.23-0.51-0.51v-1.06c0-0.28,0.23-0.51,0.51-0.51h22.39     c0.28,0,0.51,0.23,0.51,0.51v1.06C524.09,295.04,523.86,295.27,523.58,295.27z"
   id="path413" />
		</g>
		<g
   id="g421">
			<path
   class="st91"
   d="M524.28,300.04h-23.81c-0.28,0-0.51-0.23-0.51-0.51v-2.43c0-0.28,0.23-0.51,0.51-0.51h23.81     c0.28,0,0.51,0.23,0.51,0.51v2.43C524.79,299.81,524.57,300.04,524.28,300.04z"
   id="path417" />
			<path
   class="st37"
   d="M523.58,299.36h-22.39c-0.28,0-0.51-0.23-0.51-0.51v-1.06c0-0.28,0.23-0.51,0.51-0.51h22.39     c0.28,0,0.51,0.23,0.51,0.51v1.06C524.09,299.13,523.86,299.36,523.58,299.36z"
   id="path419" />
		</g>
		<path
   class="st37"
   d="M562.84,301.01h-2.44c-0.13,0-0.24-0.11-0.24-0.24v-9.15c0-0.13,0.11-0.24,0.24-0.24h2.44    c0.13,0,0.24,0.11,0.24,0.24v9.15C563.08,300.9,562.97,301.01,562.84,301.01z"
   id="path423" />
		<path
   class="st37"
   d="M557.02,293.93H545.1c-0.13,0-0.24-0.11-0.24-0.24v-2.07c0-0.13,0.11-0.24,0.24-0.24h11.92    c0.13,0,0.24,0.11,0.24,0.24v2.07C557.26,293.82,557.15,293.93,557.02,293.93z"
   id="path425" />
		<path
   class="st37"
   d="M542.29,293.93h-11.92c-0.13,0-0.24-0.11-0.24-0.24v-2.07c0-0.13,0.11-0.24,0.24-0.24h11.92    c0.13,0,0.24,0.11,0.24,0.24v2.07C542.53,293.82,542.42,293.93,542.29,293.93z"
   id="path427" />
		<g
   id="g437">
			<path
   class="st37"
   d="M532.58,301.01h-2.21c-0.13,0-0.24-0.11-0.24-0.24v-2.21c0-0.13,0.11-0.24,0.24-0.24h2.21     c0.13,0,0.24,0.11,0.24,0.24v2.21C532.82,300.9,532.71,301.01,532.58,301.01z"
   id="path429" />
			<rect
   x="535.04"
   y="298.32"
   class="st37"
   width="2.69"
   height="2.69"
   id="rect431" />
			<path
   class="st37"
   d="M542.4,301.01h-2.21c-0.13,0-0.24-0.11-0.24-0.24v-2.21c0-0.13,0.11-0.24,0.24-0.24h2.21     c0.13,0,0.24,0.11,0.24,0.24v2.21C542.64,300.9,542.53,301.01,542.4,301.01z"
   id="path433" />
			<path
   class="st37"
   d="M547.31,301.01h-2.21c-0.13,0-0.24-0.11-0.24-0.24v-2.21c0-0.13,0.11-0.24,0.24-0.24h2.21     c0.13,0,0.24,0.11,0.24,0.24v2.21C547.55,300.9,547.44,301.01,547.31,301.01z"
   id="path435" />
		</g>
	</g>
	<g
   id="g473">
		<path
   class="st6"
   d="M564.19,321.96H497.6c-1.35,0-2.44-1.09-2.44-2.44v-10.48c0-1.35,1.09-2.44,2.44-2.44h66.59    c1.35,0,2.44,1.09,2.44,2.44v10.48C566.63,320.87,565.54,321.96,564.19,321.96z"
   id="path441" />
		<path
   class="st90"
   d="M526.16,319.09h-27.49c-0.28,0-0.51-0.23-0.51-0.51v-8.61c0-0.28,0.23-0.51,0.51-0.51h27.49    c0.28,0,0.51,0.23,0.51,0.51v8.61C526.67,318.87,526.44,319.09,526.16,319.09z"
   id="path443" />
		<g
   id="g449">
			<path
   class="st91"
   d="M524.28,314.04h-23.81c-0.28,0-0.51-0.23-0.51-0.51v-2.43c0-0.28,0.23-0.51,0.51-0.51h23.81     c0.28,0,0.51,0.23,0.51,0.51v2.43C524.79,313.81,524.57,314.04,524.28,314.04z"
   id="path445" />
			<path
   class="st37"
   d="M523.58,313.35h-22.39c-0.28,0-0.51-0.23-0.51-0.51v-1.06c0-0.28,0.23-0.51,0.51-0.51h22.39     c0.28,0,0.51,0.23,0.51,0.51v1.06C524.09,313.12,523.86,313.35,523.58,313.35z"
   id="path447" />
		</g>
		<g
   id="g455">
			<path
   class="st91"
   d="M524.28,318.13h-23.81c-0.28,0-0.51-0.23-0.51-0.51v-2.43c0-0.28,0.23-0.51,0.51-0.51h23.81     c0.28,0,0.51,0.23,0.51,0.51v2.43C524.79,317.9,524.57,318.13,524.28,318.13z"
   id="path451" />
			<path
   class="st37"
   d="M523.58,317.44h-22.39c-0.28,0-0.51-0.23-0.51-0.51v-1.06c0-0.28,0.23-0.51,0.51-0.51h22.39     c0.28,0,0.51,0.23,0.51,0.51v1.06C524.09,317.21,523.86,317.44,523.58,317.44z"
   id="path453" />
		</g>
		<path
   class="st37"
   d="M562.84,319.09h-2.44c-0.13,0-0.24-0.11-0.24-0.24v-9.15c0-0.13,0.11-0.24,0.24-0.24h2.44    c0.13,0,0.24,0.11,0.24,0.24v9.15C563.08,318.99,562.97,319.09,562.84,319.09z"
   id="path457" />
		<path
   class="st37"
   d="M557.02,312.01H545.1c-0.13,0-0.24-0.11-0.24-0.24v-2.07c0-0.13,0.11-0.24,0.24-0.24h11.92    c0.13,0,0.24,0.11,0.24,0.24v2.07C557.26,311.91,557.15,312.01,557.02,312.01z"
   id="path459" />
		<path
   class="st37"
   d="M542.29,312.01h-11.92c-0.13,0-0.24-0.11-0.24-0.24v-2.07c0-0.13,0.11-0.24,0.24-0.24h11.92    c0.13,0,0.24,0.11,0.24,0.24v2.07C542.53,311.91,542.42,312.01,542.29,312.01z"
   id="path461" />
		<g
   id="g471">
			<path
   class="st37"
   d="M532.58,319.09h-2.21c-0.13,0-0.24-0.11-0.24-0.24v-2.21c0-0.13,0.11-0.24,0.24-0.24h2.21     c0.13,0,0.24,0.11,0.24,0.24v2.21C532.82,318.99,532.71,319.09,532.58,319.09z"
   id="path463" />
			<rect
   x="535.04"
   y="316.4"
   class="st37"
   width="2.69"
   height="2.69"
   id="rect465" />
			<path
   class="st37"
   d="M542.4,319.09h-2.21c-0.13,0-0.24-0.11-0.24-0.24v-2.21c0-0.13,0.11-0.24,0.24-0.24h2.21     c0.13,0,0.24,0.11,0.24,0.24v2.21C542.64,318.99,542.53,319.09,542.4,319.09z"
   id="path467" />
			<path
   class="st37"
   d="M547.31,319.09h-2.21c-0.13,0-0.24-0.11-0.24-0.24v-2.21c0-0.13,0.11-0.24,0.24-0.24h2.21     c0.13,0,0.24,0.11,0.24,0.24v2.21C547.55,318.99,547.44,319.09,547.31,319.09z"
   id="path469" />
		</g>
	</g>
	<g
   id="g507">
		<path
   class="st6"
   d="M564.19,340.04H497.6c-1.35,0-2.44-1.09-2.44-2.44v-10.48c0-1.35,1.09-2.44,2.44-2.44h66.59    c1.35,0,2.44,1.09,2.44,2.44v10.48C566.63,338.95,565.54,340.04,564.19,340.04z"
   id="path475" />
		<path
   class="st90"
   d="M526.16,337.18h-27.49c-0.28,0-0.51-0.23-0.51-0.51v-8.61c0-0.28,0.23-0.51,0.51-0.51h27.49    c0.28,0,0.51,0.23,0.51,0.51v8.61C526.67,336.95,526.44,337.18,526.16,337.18z"
   id="path477" />
		<g
   id="g483">
			<path
   class="st91"
   d="M524.28,332.12h-23.81c-0.28,0-0.51-0.23-0.51-0.51v-2.43c0-0.28,0.23-0.51,0.51-0.51h23.81     c0.28,0,0.51,0.23,0.51,0.51v2.43C524.79,331.89,524.57,332.12,524.28,332.12z"
   id="path479" />
			<path
   class="st37"
   d="M523.58,331.44h-22.39c-0.28,0-0.51-0.23-0.51-0.51v-1.06c0-0.28,0.23-0.51,0.51-0.51h22.39     c0.28,0,0.51,0.23,0.51,0.51v1.06C524.09,331.21,523.86,331.44,523.58,331.44z"
   id="path481" />
		</g>
		<g
   id="g489">
			<path
   class="st91"
   d="M524.28,336.21h-23.81c-0.28,0-0.51-0.23-0.51-0.51v-2.43c0-0.28,0.23-0.51,0.51-0.51h23.81     c0.28,0,0.51,0.23,0.51,0.51v2.43C524.79,335.98,524.57,336.21,524.28,336.21z"
   id="path485" />
			<path
   class="st37"
   d="M523.58,335.53h-22.39c-0.28,0-0.51-0.23-0.51-0.51v-1.06c0-0.28,0.23-0.51,0.51-0.51h22.39     c0.28,0,0.51,0.23,0.51,0.51v1.06C524.09,335.3,523.86,335.53,523.58,335.53z"
   id="path487" />
		</g>
		<path
   class="st37"
   d="M562.84,337.18h-2.44c-0.13,0-0.24-0.11-0.24-0.24v-9.15c0-0.13,0.11-0.24,0.24-0.24h2.44    c0.13,0,0.24,0.11,0.24,0.24v9.15C563.08,337.07,562.97,337.18,562.84,337.18z"
   id="path491" />
		<path
   class="st37"
   d="M557.02,330.1H545.1c-0.13,0-0.24-0.11-0.24-0.24v-2.07c0-0.13,0.11-0.24,0.24-0.24h11.92    c0.13,0,0.24,0.11,0.24,0.24v2.07C557.26,329.99,557.15,330.1,557.02,330.1z"
   id="path493" />
		<path
   class="st37"
   d="M542.29,330.1h-11.92c-0.13,0-0.24-0.11-0.24-0.24v-2.07c0-0.13,0.11-0.24,0.24-0.24h11.92    c0.13,0,0.24,0.11,0.24,0.24v2.07C542.53,329.99,542.42,330.1,542.29,330.1z"
   id="path495" />
		<g
   id="g505">
			<path
   class="st37"
   d="M532.58,337.18h-2.21c-0.13,0-0.24-0.11-0.24-0.24v-2.21c0-0.13,0.11-0.24,0.24-0.24h2.21     c0.13,0,0.24,0.11,0.24,0.24v2.21C532.82,337.07,532.71,337.18,532.58,337.18z"
   id="path497" />
			<rect
   x="535.04"
   y="334.48"
   class="st37"
   width="2.69"
   height="2.69"
   id="rect499" />
			<path
   class="st37"
   d="M542.4,337.18h-2.21c-0.13,0-0.24-0.11-0.24-0.24v-2.21c0-0.13,0.11-0.24,0.24-0.24h2.21     c0.13,0,0.24,0.11,0.24,0.24v2.21C542.64,337.07,542.53,337.18,542.4,337.18z"
   id="path501" />
			<path
   class="st37"
   d="M547.31,337.18h-2.21c-0.13,0-0.24-0.11-0.24-0.24v-2.21c0-0.13,0.11-0.24,0.24-0.24h2.21     c0.13,0,0.24,0.11,0.24,0.24v2.21C547.55,337.07,547.44,337.18,547.31,337.18z"
   id="path503" />
		</g>
	</g>
	<path
   class="st31"
   d="M350.35,113.92l-5.07-3.97c-1.07-0.84-1.26-2.38-0.42-3.44l0,0c0.84-1.07,2.38-1.26,3.44-0.42l5.07,3.97   c1.07,0.84,1.26,2.38,0.42,3.44v0C352.96,114.57,351.42,114.76,350.35,113.92z"
   id="path509" />
	<path
   class="st31"
   d="M348.41,118.57l-7.7-6.03c-1.07-0.84-1.26-2.38-0.42-3.44l0,0c0.84-1.07,2.38-1.26,3.44-0.42l7.7,6.03   c1.07,0.84,1.26,2.38,0.42,3.44l0,0C351.02,119.22,349.47,119.41,348.41,118.57z"
   id="path511" />
	<path
   class="st31"
   d="M346.46,123.22l-5.07-3.97c-1.07-0.84-1.26-2.38-0.42-3.44v0c0.84-1.07,2.38-1.26,3.44-0.42l5.07,3.97   c1.07,0.84,1.26,2.38,0.42,3.44l0,0C349.07,123.87,347.53,124.06,346.46,123.22z"
   id="path513" />
	<path
   class="st31"
   d="M344.71,127.64l-2.83-2.21c-1.07-0.84-1.26-2.38-0.42-3.44h0c0.84-1.07,2.38-1.26,3.44-0.42l2.83,2.21   c1.07,0.84,1.26,2.38,0.42,3.44h0C347.32,128.29,345.77,128.47,344.71,127.64z"
   id="path515" />
	<path
   class="st32"
   d="M270.45,81.94c0.11,1.72,0.4,3.86,1.09,6.22c1.02,3.46,2.54,6.11,3.77,7.91c0.24-2.18,0.48-4.37,0.72-6.55   c-0.98-0.94-2.08-2.13-3.17-3.61C271.83,84.48,271.04,83.12,270.45,81.94z"
   id="path517" />
	<path
   class="st87"
   d="M294.85,137.1c0,0,0.88,16.35,3.07,28.36"
   id="path519" />
	<path
   class="st31"
   d="M259.35,67.07c0,3.5,2.72,6.33,6.09,6.33c3.36,0,6.09-2.83,6.09-6.33c0-3.5-2.72-6.33-6.09-6.33   C262.07,60.74,259.35,63.57,259.35,67.07z"
   id="path521" />
	<path
   class="st92"
   d="M265.59,62.27c-2.11,0.24-3.82,1.76-4.27,3.73c-0.39,1.7,0.21,3.5,1.55,4.7"
   id="path523" />
	<path
   class="st92"
   d="M263.06,63.3c-0.02,0.28-0.12,1.98,1.18,3.37c1.21,1.29,2.76,1.39,3.07,1.41"
   id="path525" />
	<path
   class="st31"
   d="M553.24,95.16c0.65,2.93-1.12,5.81-3.93,6.43c-2.82,0.62-5.62-1.25-6.27-4.18c-0.65-2.93,1.12-5.81,3.93-6.43   C549.79,90.35,552.59,92.23,553.24,95.16z"
   id="path527" />
	<path
   class="st93"
   d="M547.12,92.29c1.81-0.18,3.53,0.77,4.27,2.34c0.64,1.35,0.47,2.97-0.43,4.23"
   id="path529" />
	<path
   class="st93"
   d="M549.43,92.68c0.07,0.23,0.47,1.64-0.37,3.04c-0.77,1.31-2.05,1.68-2.31,1.74"
   id="path531" />
	
		<ellipse
   transform="matrix(0.1561 -0.9877 0.9877 0.1561 174.2799 350.2531)"
   class="st6"
   cx="292.11"
   cy="73.13"
   rx="2.1"
   ry="1.35"
   id="ellipse533" />
	
		<ellipse
   transform="matrix(0.1561 -0.9877 0.9877 0.1561 179.4705 358.7134)"
   class="st6"
   cx="299.66"
   cy="74.33"
   rx="2.1"
   ry="1.35"
   id="ellipse535" />
	<path
   class="st92"
   d="M296.18,76.9l0.45,3.67c0.1,0.78-0.37,1.51-1.12,1.76l-1.99,0.65"
   id="path537" />
	<path
   class="st92"
   d="M290.2,85.63c0.16,0.28,0.78,1.27,2.07,1.72c1.5,0.53,2.78-0.07,3.02-0.19"
   id="path539" />
	<line
   class="st94"
   x1="289.18"
   y1="63.94"
   x2="295.62"
   y2="64.66"
   id="line541" />
	<line
   class="st94"
   x1="298.8"
   y1="65.02"
   x2="304.89"
   y2="67.22"
   id="line543" />
	<path
   class="st87"
   d="M525.95,148.93l-4.69,23c-1.49,7.33-5.46,13.93-11.24,18.7l-8.99,7.41"
   id="path545" />
	<path
   class="st87"
   d="M575.62,153.15l2.86,34.34c-10.22,1.15-20.44,2.29-30.66,3.44"
   id="path547" />
	<path
   class="st87"
   d="M578.48,187.49c4.47-0.39,8.95-0.77,13.42-1.16"
   id="path549" />
	
		<ellipse
   transform="matrix(0.9861 -0.1662 0.1662 0.9861 -9.1499 89.7962)"
   class="st6"
   cx="531.82"
   cy="99.55"
   rx="1.02"
   ry="1.58"
   id="ellipse551" />
	
		<ellipse
   transform="matrix(0.9861 -0.1662 0.1662 0.9861 -9.5876 88.4975)"
   class="st6"
   cx="523.84"
   cy="101.52"
   rx="1.02"
   ry="1.58"
   id="ellipse553" />
	<path
   class="st95"
   d="M526.96,102.8l-0.31,2.77c-0.07,0.59,0.29,1.14,0.86,1.32l1.5,0.48"
   id="path555" />
	<path
   class="st25"
   d="M532.03,108.88c0.12,1.26-0.58,2.43-1.68,2.89c-1.25,0.51-2.78-0.01-3.49-1.27   C528.58,109.96,530.3,109.42,532.03,108.88z"
   id="path557" />
	<line
   class="st96"
   x1="533.38"
   y1="94.16"
   x2="528.53"
   y2="94.75"
   id="line559" />
	<line
   class="st96"
   x1="523.86"
   y1="95.83"
   x2="519.29"
   y2="97.54"
   id="line561" />
	<path
   class="st25"
   d="M222.14,277.93h-39.38c-2.05,0-3.72-1.66-3.72-3.72v-22.79c0-2.05,1.66-3.72,3.72-3.72h39.38   c2.05,0,3.72,1.66,3.72,3.72v22.79C225.85,276.27,224.19,277.93,222.14,277.93z"
   id="path563" />
	<path
   class="st25"
   d="M275.15,274.62h-39.38c-2.05,0-3.72-1.66-3.72-3.72v-22.79c0-2.05,1.66-3.72,3.72-3.72h39.38   c2.05,0,3.72,1.66,3.72,3.72v22.79C278.87,272.96,277.2,274.62,275.15,274.62z"
   id="path565" />
	<path
   class="st25"
   d="M222.14,314.93h-39.38c-2.05,0-3.72-1.66-3.72-3.72v-22.79c0-2.05,1.66-3.72,3.72-3.72h39.38   c2.05,0,3.72,1.66,3.72,3.72v22.79C225.85,313.26,224.19,314.93,222.14,314.93z"
   id="path567" />
	<g
   id="g577">
		<g
   id="g575">
			<path
   class="st0"
   d="M192.12,264.78l-1.19,3.62h-1.54l3.91-11.51h1.79l3.93,11.51h-1.59l-1.23-3.62H192.12z M195.9,263.62     l-1.14-3.31c-0.25-0.75-0.42-1.44-0.59-2.1h-0.04c-0.17,0.67-0.34,1.38-0.57,2.08l-1.13,3.33H195.9z"
   id="path569" />
			<path
   class="st0"
   d="M200.7,257.03c0.72-0.13,1.66-0.23,2.86-0.23c1.46,0,2.54,0.34,3.23,0.96c0.62,0.55,1.01,1.38,1.01,2.41     c0,1.04-0.31,1.87-0.89,2.46c-0.79,0.84-2.06,1.26-3.52,1.26c-0.45,0-0.86-0.02-1.2-0.11v4.62h-1.49V257.03z M202.19,262.57     c0.33,0.1,0.74,0.13,1.23,0.13c1.8,0,2.89-0.88,2.89-2.46c0-1.52-1.09-2.27-2.72-2.27c-0.66,0-1.14,0.06-1.41,0.12V262.57z"
   id="path571" />
			<path
   class="st0"
   d="M211.28,256.89v11.51h-1.49v-11.51H211.28z"
   id="path573" />
		</g>
	</g>
	<g
   id="g587">
		<g
   id="g585">
			<path
   class="st0"
   d="M244.98,261.47l-1.19,3.62h-1.54l3.91-11.51h1.79l3.93,11.51h-1.59l-1.23-3.62H244.98z M248.76,260.31     l-1.14-3.31c-0.25-0.75-0.42-1.44-0.59-2.1h-0.04c-0.17,0.67-0.34,1.38-0.57,2.08l-1.13,3.33H248.76z"
   id="path579" />
			<path
   class="st0"
   d="M253.56,253.72c0.72-0.13,1.66-0.23,2.86-0.23c1.46,0,2.54,0.34,3.23,0.96c0.62,0.55,1.01,1.38,1.01,2.41     c0,1.04-0.31,1.87-0.89,2.46c-0.79,0.84-2.06,1.26-3.52,1.26c-0.45,0-0.86-0.02-1.2-0.11v4.62h-1.49V253.72z M255.04,259.26     c0.33,0.1,0.74,0.13,1.23,0.13c1.8,0,2.89-0.88,2.89-2.46c0-1.52-1.09-2.27-2.72-2.27c-0.66,0-1.14,0.06-1.41,0.12V259.26z"
   id="path581" />
			<path
   class="st0"
   d="M264.13,253.58v11.51h-1.49v-11.51H264.13z"
   id="path583" />
		</g>
	</g>
	<g
   id="g597">
		<g
   id="g595">
			<path
   class="st0"
   d="M297.84,264.78l-1.19,3.62h-1.54l3.91-11.51h1.79l3.93,11.51h-1.59l-1.23-3.62H297.84z M301.62,263.62     l-1.14-3.31c-0.25-0.75-0.42-1.44-0.59-2.1h-0.04c-0.17,0.67-0.34,1.38-0.57,2.08l-1.13,3.33H301.62z"
   id="path589" />
			<path
   class="st0"
   d="M306.42,257.03c0.72-0.13,1.66-0.23,2.86-0.23c1.46,0,2.54,0.34,3.23,0.96c0.62,0.55,1.01,1.38,1.01,2.41     c0,1.04-0.31,1.87-0.89,2.46c-0.79,0.84-2.06,1.26-3.52,1.26c-0.45,0-0.86-0.02-1.2-0.11v4.62h-1.49V257.03z M307.9,262.57     c0.33,0.1,0.74,0.13,1.23,0.13c1.8,0,2.89-0.88,2.89-2.46c0-1.52-1.09-2.27-2.72-2.27c-0.66,0-1.14,0.06-1.41,0.12V262.57z"
   id="path591" />
			<path
   class="st0"
   d="M316.99,256.89v11.51h-1.49v-11.51H316.99z"
   id="path593" />
		</g>
	</g>
	<g
   id="g607">
		<g
   id="g605">
			<path
   class="st0"
   d="M192.12,302.15l-1.19,3.62h-1.54l3.91-11.51h1.79l3.93,11.51h-1.59l-1.23-3.62H192.12z M195.9,300.99     l-1.14-3.31c-0.25-0.75-0.42-1.44-0.59-2.1h-0.04c-0.17,0.67-0.34,1.38-0.57,2.08l-1.13,3.33H195.9z"
   id="path599" />
			<path
   class="st0"
   d="M200.7,294.4c0.72-0.13,1.66-0.23,2.86-0.23c1.46,0,2.54,0.34,3.23,0.96c0.62,0.55,1.01,1.38,1.01,2.41     c0,1.04-0.31,1.87-0.89,2.46c-0.79,0.84-2.06,1.26-3.52,1.26c-0.45,0-0.86-0.02-1.2-0.11v4.62h-1.49V294.4z M202.19,299.94     c0.33,0.1,0.74,0.13,1.23,0.13c1.8,0,2.89-0.88,2.89-2.46c0-1.52-1.09-2.27-2.72-2.27c-0.66,0-1.14,0.06-1.41,0.12V299.94z"
   id="path601" />
			<path
   class="st0"
   d="M211.28,294.26v11.51h-1.49v-11.51H211.28z"
   id="path603" />
		</g>
	</g>
	<g
   id="g617">
		<g
   id="g615">
			<path
   class="st0"
   d="M244.98,298.55l-1.19,3.62h-1.54l3.91-11.51h1.79l3.93,11.51h-1.59l-1.23-3.62H244.98z M248.76,297.39     l-1.14-3.31c-0.25-0.75-0.42-1.44-0.59-2.1h-0.04c-0.17,0.67-0.34,1.38-0.57,2.08l-1.13,3.33H248.76z"
   id="path609" />
			<path
   class="st0"
   d="M253.56,290.8c0.72-0.13,1.66-0.23,2.86-0.23c1.46,0,2.54,0.34,3.23,0.96c0.62,0.55,1.01,1.38,1.01,2.41     c0,1.04-0.31,1.87-0.89,2.46c-0.79,0.84-2.06,1.26-3.52,1.26c-0.45,0-0.86-0.02-1.2-0.11v4.62h-1.49V290.8z M255.04,296.35     c0.33,0.1,0.74,0.13,1.23,0.13c1.8,0,2.89-0.88,2.89-2.46c0-1.52-1.09-2.27-2.72-2.27c-0.66,0-1.14,0.06-1.41,0.12V296.35z"
   id="path611" />
			<path
   class="st0"
   d="M264.13,290.66v11.51h-1.49v-11.51H264.13z"
   id="path613" />
		</g>
	</g>
	<g
   id="g627">
		<g
   id="g625">
			<path
   class="st0"
   d="M192.12,339.51l-1.19,3.62h-1.54l3.91-11.51h1.79l3.93,11.51h-1.59l-1.23-3.62H192.12z M195.9,338.35     l-1.14-3.31c-0.25-0.75-0.42-1.44-0.59-2.1h-0.04c-0.17,0.67-0.34,1.38-0.57,2.08l-1.13,3.33H195.9z"
   id="path619" />
			<path
   class="st0"
   d="M200.7,331.76c0.72-0.13,1.66-0.23,2.86-0.23c1.46,0,2.54,0.34,3.23,0.96c0.62,0.55,1.01,1.38,1.01,2.41     c0,1.04-0.31,1.87-0.89,2.46c-0.79,0.84-2.06,1.26-3.52,1.26c-0.45,0-0.86-0.02-1.2-0.11v4.62h-1.49V331.76z M202.19,337.3     c0.33,0.1,0.74,0.13,1.23,0.13c1.8,0,2.89-0.88,2.89-2.46c0-1.52-1.09-2.27-2.72-2.27c-0.66,0-1.14,0.06-1.41,0.12V337.3z"
   id="path621" />
			<path
   class="st0"
   d="M211.28,331.62v11.51h-1.49v-11.51H211.28z"
   id="path623" />
		</g>
	</g>
	<g
   id="g637">
		<g
   id="g635">
			<path
   class="st0"
   d="M244.98,336.92l-1.19,3.62h-1.54l3.91-11.51h1.79l3.93,11.51h-1.59l-1.23-3.62H244.98z M248.76,335.76     l-1.14-3.31c-0.25-0.75-0.42-1.44-0.59-2.1h-0.04c-0.17,0.67-0.34,1.38-0.57,2.08l-1.13,3.33H248.76z"
   id="path629" />
			<path
   class="st0"
   d="M253.56,329.17c0.72-0.13,1.66-0.23,2.86-0.23c1.46,0,2.54,0.34,3.23,0.96c0.62,0.55,1.01,1.38,1.01,2.41     c0,1.04-0.31,1.87-0.89,2.46c-0.79,0.84-2.06,1.26-3.52,1.26c-0.45,0-0.86-0.02-1.2-0.11v4.62h-1.49V329.17z M255.04,334.71     c0.33,0.1,0.74,0.13,1.23,0.13c1.8,0,2.89-0.88,2.89-2.46c0-1.52-1.09-2.27-2.72-2.27c-0.66,0-1.14,0.06-1.41,0.12V334.71z"
   id="path631" />
			<path
   class="st0"
   d="M264.13,329.03v11.51h-1.49v-11.51H264.13z"
   id="path633" />
		</g>
	</g>
	<g
   id="g647">
		<g
   id="g645">
			<path
   class="st0"
   d="M297.84,339.51l-1.19,3.62h-1.54l3.91-11.51h1.79l3.93,11.51h-1.59l-1.23-3.62H297.84z M301.62,338.35     l-1.14-3.31c-0.25-0.75-0.42-1.44-0.59-2.1h-0.04c-0.17,0.67-0.34,1.38-0.57,2.08l-1.13,3.33H301.62z"
   id="path639" />
			<path
   class="st0"
   d="M306.42,331.76c0.72-0.13,1.66-0.23,2.86-0.23c1.46,0,2.54,0.34,3.23,0.96c0.62,0.55,1.01,1.38,1.01,2.41     c0,1.04-0.31,1.87-0.89,2.46c-0.79,0.84-2.06,1.26-3.52,1.26c-0.45,0-0.86-0.02-1.2-0.11v4.62h-1.49V331.76z M307.9,337.3     c0.33,0.1,0.74,0.13,1.23,0.13c1.8,0,2.89-0.88,2.89-2.46c0-1.52-1.09-2.27-2.72-2.27c-0.66,0-1.14,0.06-1.41,0.12V337.3z"
   id="path641" />
			<path
   class="st0"
   d="M316.99,331.62v11.51h-1.49v-11.51H316.99z"
   id="path643" />
		</g>
	</g>
	<g
   id="g665">
		<g
   id="g663">
			<g
   id="g661">
				<path
   class="st0"
   d="M295.13,300.73c-0.06-1.1-0.13-2.44-0.13-3.42h-0.03c-0.27,0.92-0.6,1.92-1,3l-1.4,3.84h-0.77l-1.29-3.77      c-0.38-1.12-0.68-2.13-0.91-3.07h-0.03c-0.03,0.99-0.08,2.3-0.16,3.49l-0.21,3.4h-0.97l0.55-7.92h1.31l1.35,3.83      c0.33,0.97,0.59,1.84,0.8,2.67h0.03c0.21-0.8,0.48-1.67,0.84-2.67l1.41-3.83h1.31l0.49,7.92h-1.01L295.13,300.73z"
   id="path649" />
				<path
   class="st0"
   d="M299.19,301.72l-0.82,2.49h-1.06l2.69-7.92h1.23l2.71,7.92h-1.09l-0.85-2.49H299.19z M301.79,300.92      l-0.78-2.28c-0.17-0.52-0.29-0.99-0.41-1.44h-0.03c-0.11,0.46-0.24,0.95-0.39,1.43l-0.78,2.29H301.79z"
   id="path651" />
				<path
   class="st0"
   d="M305.09,296.39c0.52-0.1,1.26-0.17,1.97-0.17c1.09,0,1.8,0.21,2.29,0.65c0.39,0.35,0.62,0.89,0.62,1.51      c0,1.04-0.66,1.73-1.49,2.02v0.03c0.6,0.21,0.97,0.78,1.16,1.6c0.26,1.11,0.45,1.86,0.61,2.17h-1.06      c-0.12-0.23-0.3-0.9-0.52-1.9c-0.23-1.08-0.66-1.51-1.59-1.54h-0.97v3.43h-1.02V296.39z M306.12,300h1.05      c1.09,0,1.79-0.6,1.79-1.5c0-1.03-0.74-1.48-1.82-1.48c-0.5,0-0.84,0.04-1.01,0.09V300z"
   id="path653" />
				<path
   class="st0"
   d="M311.42,296.29h1.02v3.82h0.04c0.21-0.31,0.43-0.58,0.62-0.84l2.42-2.98h1.27l-2.86,3.37l3.09,4.55h-1.21      l-2.6-3.88l-0.76,0.87v3.02h-1.02V296.29z"
   id="path655" />
				<path
   class="st0"
   d="M321.89,300.49h-3.07v2.86h3.43v0.85h-4.46v-7.92h4.28v0.85h-3.25v2.51h3.07V300.49z"
   id="path657" />
				<path
   class="st0"
   d="M325.08,297.15h-2.41v-0.86h5.86v0.86h-2.42v7.05h-1.03V297.15z"
   id="path659" />
			</g>
		</g>
	</g>
	<g
   id="g719">
		<path
   class="st31"
   d="M211.99,386.66c0.96-2.65,2.56-5.01,4.59-6.96c5.64-5.43,11.69-11.86,17.76-19.38    c6.41-7.94,11.63-15.59,15.87-22.53l-0.18-9.89c-0.06-3.41,0.63-6.79,2.02-9.91c2.94-6.58,5.88-13.17,8.82-19.75    c0.64-0.74,1.63-1.06,2.56-0.82c1.04,0.27,1.81,1.19,1.9,2.3c-1.54,3.96-3.09,7.91-4.63,11.87c4.57-3.15,9.14-6.3,13.71-9.46    c0.88-0.36,1.88-0.11,2.46,0.61c0.54,0.67,0.61,1.63,0.16,2.39l-6.95,6.23c5.02-1.47,10.04-2.93,15.05-4.4    c1.32-0.02,2.45,0.86,2.73,2.04c0.31,1.35-0.56,2.82-2.04,3.21c-3.38,0.7-6.75,1.4-10.13,2.1c3.76,0.53,7.52,1.06,11.27,1.59    c1.21,0.48,1.91,1.76,1.67,3.02c-0.24,1.24-1.32,2.16-2.59,2.2c-3.51-0.26-7.03-0.51-10.54-0.77c-0.43,3.98-0.85,7.95-1.28,11.93    c-0.16,1.72-0.61,4.34-2.02,7.21c-1.85,3.76-4.41,6.06-5.91,7.22c-6.77,17.52-13.54,35.03-20.3,52.55    c-2.53,6.55-8.38,11.35-15.35,12.22c-3.97,0.5-8-0.26-11.38-2.32C212.04,404.76,208.93,395.12,211.99,386.66z"
   id="path667" />
		<g
   id="g709">
			<path
   class="st0"
   d="M88.35,341.87c9.13-13.47,18.52-14.99,18.52-14.99v0c-7.25,2.62-12.66,9.09-13.74,17.02     c-1.15,8.5,0.05,24.18,1.08,43.51c2.4-0.08,4.22,1.93,4.05,3.94c-0.15,1.7-1.7,3.2-3.69,3.29c0.04,0.75,0.07,1.5,0.1,2.25     c0.22,0.17,2.46,1.93,2.36,4.88c-0.08,2.45-1.72,3.94-2.01,4.19c0.05,1.51,0.09,3.03,0.13,4.56c-0.39,0.2-0.78,0.39-1.17,0.55     c-3.17,1.19-6.6,1.89-10.03,2.04c-8.43,0.36-15.2-6.85-14.5-15.27C71.07,378.3,79.64,353.07,88.35,341.87z"
   id="path669" />
			<path
   class="st31"
   d="M143.39,308.37c2.75-0.33,4.79-0.81,6.33-1.42c0,0,0,0,0,0c-0.65,1.95-0.92,4.87-0.81,8.07     c-5-0.12-10.21-0.59-13.82-1.36l0.16-2.78l0.15-2.6C136.93,308.86,139.22,308.87,143.39,308.37z"
   id="path671" />
			<path
   class="st31"
   d="M168.2,278.92c-0.16,0.09-0.33,0.16-0.52,0.24c0.02-0.27,0.05-0.54,0.1-0.81     C167.92,278.54,168.06,278.73,168.2,278.92z"
   id="path673" />
			<path
   class="st97"
   d="M172.27,290.58c-0.07-0.88-0.15-1.54-0.22-1.99C172.16,289.32,172.27,289.98,172.27,290.58z"
   id="path675" />
			<path
   class="st32"
   d="M157.14,280.05c0.26-0.98,0.41-2.21,0.56-3.55c0.31-2.92,0.1-7.8,0.91-11.44c0.03-0.09,0.05-0.19,0.07-0.3     c0.01-0.02,0.01-0.05,0.02-0.07c0.98-2.68,2.92-3.57,5.15-3.5c0.64,0.6,1.19,1.31,1.67,2.08     C156.97,263.68,160.08,274.74,157.14,280.05z"
   id="path677" />
			<path
   class="st97"
   d="M172.06,288.59c0.06,0.45,0.14,1.11,0.22,1.99C172.27,289.98,172.16,289.32,172.06,288.59z"
   id="path679" />
			<path
   class="st31"
   d="M172.27,290.58c2.14,5.11,1.04,10.63-2.48,13.63c-2.91,2.47-6.48,2.39-7.56,2.32     c-0.27,3.07-0.55,6.13-0.82,9.2c-4.3-0.24-8.6-0.48-12.9-0.72c-0.9-1.16-3.32-4.61-3.07-9.29c0.3-5.72,4.36-9.33,5.82-10.63     c1.77-1.57,3.52-2.5,4.74-3.05c-2.1-3.25-5.04-8.38-3.56-9.94c0.44-0.46,1.39-0.74,3.56-0.05c0.54-0.34,0.89-1.04,1.14-1.99     c2.94-5.31-0.17-16.37,8.38-16.78c1.54,2.47,2.34,5.55,2.89,7.47c0,0,0,0,0,0c-3.25,1.53,0.35,3.11,0.36,3.11     c-0.18,1.49-0.74,2.98-0.99,4.49c-0.04,0.27-0.08,0.54-0.1,0.81c0.19-0.07,0.36-0.15,0.52-0.24l0.66,0.88l5.94,6.86     c0.25,0.29,0.39,0.67,0.34,1.05c0,0,0,0,0,0.01C174.93,289.55,172.56,290.48,172.27,290.58z"
   id="path681" />
			<path
   class="st6"
   d="M138.52,286.92c-1.03-2.39,0-7.42,0-7.42l0,0l0.01,0.01l0.06,0.09l0.01,0.02l0.04,0.05l0.04,0.06l0.21,0.28     l0.1,0.14l0.43,0.59l0.25,0.35l0.22,0.31l0.5,0.69l0.45,0.62l1.04,1.44c-1.17-2.2,0-7.49,0-7.49l4.73,2.85     c0,0-3.32-6.28-0.92-9.87c3.41,3.27,8.88,5.66,11.99,6.85c-0.14,1.35-0.3,2.58-0.56,3.55c-0.25,0.95-0.6,1.65-1.14,1.99     c-2.28-0.35-3.07,0.33-3.31,0.61c-1.3,1.45-0.15,5.26,3.31,9.38c0.01,0.9-0.02,1.8-0.09,2.7c-0.09,2.52-0.18,5.05-0.26,7.57     c-0.05,1.56-1.06,2.92-2.53,3.44l-3.39,1.19c-1.54,0.62-3.58,1.09-6.33,1.42c-4.17,0.5-6.46,0.49-7.99-0.09     c-0.42-0.16-0.78-0.36-1.1-0.61c-0.76-0.58-1.26-1.43-1.47-2.35c-1.14-4.84-2.74-10-4.02-12.45     C128.91,289.55,134.27,282.73,138.52,286.92z"
   id="path683" />
			<path
   class="st98"
   d="M141.9,261.93c0.25,0.13,0.48,0.26,0.69,0.37c-0.17-0.12-0.34-0.24-0.52-0.36     C142.01,261.93,141.96,261.93,141.9,261.93z"
   id="path685" />
			<path
   class="st99"
   d="M150.67,325.48c-1.07-0.09-2.14-0.17-3.21-0.24c1.04-0.01,2.09-0.02,3.13-0.01     C150.62,325.32,150.64,325.4,150.67,325.48z"
   id="path687" />
			<path
   class="st100"
   d="M168.94,328.23c-11.92-1.53-16.61-2.22-18.16-2.52c-0.31-0.06-1.58-0.31-3.31-0.47     c-1.09-0.1-1.93-0.12-2.39-0.14c-6.1-0.33-12.1-0.36-17.65-0.22c-0.4-3.31,2.89-13.8,7.67-11.22c3.24,0.7,7.77,1.15,12.29,1.32     c0-0.01,0-0.02,0-0.03c5,0.18,10.23,0.04,13.88-0.52c0.64-0.14,1.2-0.13,1.68-0.02C166.3,315.12,168.54,320.74,168.94,328.23z"
   id="path689" />
			<path
   class="st99"
   d="M147.46,325.24c-0.82,0-1.64,0.02-2.45,0.04c0.02-0.06,0.05-0.12,0.07-0.18     C145.87,325.14,146.67,325.19,147.46,325.24z"
   id="path691" />
			<path
   class="st0"
   d="M213.13,409.97c-1.56-0.74-3.13-1.54-4.71-2.4c-2.56-1.38-5.11-2.89-7.57-4.38     c-4.7-2.85-9.05-5.66-12.42-7.53c-1.34,7.29-2.63,14.73-3.83,22.29c-0.42,2.66-0.83,5.31-1.22,7.94     c-2.45,16.41-4.37,32.34-5.83,47.73c-0.01,0-0.02,0-0.02,0c-32.39,0.23-63.03-12.88-82.61-35.54c0.06-4.67,0.13-8.47,0.16-11.17     c0.07-6.96,0.13-14.31,0.08-16.41c-0.04-1.53-0.08-3.05-0.13-4.55c-0.1-3.08-0.22-6.11-0.35-9.07c-0.03-0.76-0.34-7.13-0.46-9.49     c-1.03-19.32-2.24-35.01-1.08-43.51c1.08-7.93,6.49-14.4,13.74-17.02c0.52-0.19,1.04-0.35,1.58-0.5     c1.24-0.35,2.53-0.58,3.86-0.69c4.38-0.36,9.53-0.68,15.13-0.82c7.24-0.18,15.23-0.08,23.24,0.6     c13.22,1.13,26.52,3.83,36.65,9.41c0.01,0,0.01,0,0.02,0c2.39,0.87,5.66,3.45,9.33,6.97c2.45,2.36,5.09,5.13,7.75,8.09     c0.25,0.28,0.5,0.56,0.74,0.84c8.59,9.65,17.33,21.01,21.37,26.35c0.15-0.12,0.32-0.22,0.5-0.3     C227.11,381.38,224.61,399.94,213.13,409.97z"
   id="path693" />
			<path
   class="st0"
   d="M223.06,413.49c0,0,13.09-20.14,4.01-36.65c0.51-0.19,1.13-0.13,1.83,0.47c0.05,0.04,0.1,0.08,0.14,0.11     c4.32,3.45,12.24,17.72,13.18,26.47c0.13,1.19,0.13,2.29-0.03,3.23c-0.24,1.41-3.6,5.8-10.94,6.32     c-0.46,0.03-0.93,0.05-1.42,0.05C224.65,413.49,223.06,413.49,223.06,413.49z"
   id="path695" />
			<path
   class="st0"
   d="M227.07,376.83c9.08,16.51-4.01,36.65-4.01,36.65s-3.88-0.4-9.93-3.51v0c11.48-10.04,13.98-28.6,13.88-33.12     c0-0.05,0-0.09,0-0.13C227.03,376.76,227.05,376.8,227.07,376.83z"
   id="path697" />
			<path
   class="st6"
   d="M158.69,264.69c-0.01,0.02-0.01,0.05-0.02,0.07c-0.02,0.11-0.04,0.21-0.07,0.3     c-0.81,3.65-0.6,8.53-0.91,11.44c-3.12-1.19-8.59-3.58-11.99-6.85c-2.4,3.59,0.92,9.87,0.92,9.87l-4.73-2.85     c0,0-1.17,5.29,0,7.49c-0.39-0.54-0.73-1.01-1.04-1.44l-0.45-0.62c-0.18-0.26-0.35-0.49-0.5-0.69l-0.22-0.31     c-0.09-0.12-0.17-0.24-0.25-0.35l-0.43-0.59c-0.04-0.05-0.07-0.1-0.1-0.14l-0.21-0.28c-0.02-0.02-0.03-0.04-0.04-0.06l-0.04-0.05     c0-0.01-0.01-0.01-0.01-0.02l-0.06-0.09c0-0.01-0.01-0.01-0.01-0.01l0,0c0,0-1.03,5.04,0,7.42c-4.25-4.19-9.61,2.63-9.72,5.95     c-1.11-2.11-6.5-9.58-7.61-16.71l0,0l-0.85-5.66c0,0-1.69-11.95,8.14-15.5c0.11-0.67,0.35-1.63,0.92-2.64     c1.07-1.88,2.65-2.81,3.37-3.17c2.67-1.44,8.88-4.31,17.16-3.91c9.81,0.47,16.49,5.25,18.81,7.08c0.83,0.53,3.27,2.23,4.09,5.31     c1.02,3.88-0.95,8.37-5.03,10.97c-0.29-1.23-0.82-2.88-1.85-4.64c-0.24-0.41-0.49-0.79-0.74-1.15c-1.02-1.45-3.02-1.87-4.5-0.9     c-0.01,0.01-0.03,0.02-0.04,0.03C159.25,262.94,158.8,264.31,158.69,264.69z"
   id="path699" />
			<path
   class="st6"
   d="M164.53,274.13c1.01-1.29,2.36-2.68,3.87-3.39c0,0,0,0,0,0c1.45,0.85,0.36,3.11,0.36,3.11l0,0     c-0.01,0-1.62,0.29-3.44,1.23C164.72,275.39,164.11,274.67,164.53,274.13z"
   id="path701" />
			<path
   class="st32"
   d="M157.11,304.46c0.47,0.4,1.14,0.88,2.02,1.29c1.23,0.57,2.36,0.73,3.1,0.78c-0.15,1.7-0.3,3.41-0.46,5.11     c-0.86-0.69-2.09-1.83-3.13-3.55C157.81,306.71,157.36,305.42,157.11,304.46z"
   id="path703" />
			
				<ellipse
   transform="matrix(0.9921 -0.1251 0.1251 0.9921 -33.5984 22.976)"
   class="st6"
   cx="166.17"
   cy="279.05"
   rx="1.19"
   ry="1.84"
   id="ellipse705" />
			<path
   class="st87"
   d="M226.52,377.15c0.95,2.94,2.41,8.89,0.97,16.16c-2.04,10.28-8.56,16.39-10.79,18.31"
   id="path707" />
		</g>
		<path
   class="st31"
   d="M149.16,285.49c0,3.5,2.72,6.33,6.09,6.33c3.36,0,6.09-2.83,6.09-6.33c0-3.5-2.72-6.33-6.09-6.33    C151.88,279.16,149.16,281.99,149.16,285.49z"
   id="path711" />
		<path
   class="st92"
   d="M155.4,280.69c-2.11,0.24-3.82,1.76-4.27,3.73c-0.39,1.7,0.21,3.5,1.55,4.7"
   id="path713" />
		<path
   class="st92"
   d="M152.87,281.72c-0.02,0.28-0.12,1.98,1.18,3.37c1.21,1.29,2.76,1.39,3.07,1.41"
   id="path715" />
		<path
   class="st92"
   d="M172.66,293.69c-0.29,0.22-0.88,0.59-1.71,0.72c-1.21,0.18-2.14-0.29-2.45-0.46"
   id="path717" />
	</g>
	<line
   class="st87"
   x1="188.43"
   y1="395.66"
   x2="167.95"
   y2="377.15"
   id="line721" />
	<line
   class="st87"
   x1="95.15"
   y1="410.52"
   x2="93.35"
   y2="353.31"
   id="line723" />
	<g
   id="g733">
		<g
   id="g731">
			<line
   class="st101"
   x1="255.16"
   y1="413.49"
   x2="257.57"
   y2="413.49"
   id="line725" />
			<path
   class="st102"
   d="M262.44,413.49h250.44c8.25,0,14.95-6.69,14.95-14.95v-35.49"
   id="path727" />
			<line
   class="st101"
   x1="527.83"
   y1="360.61"
   x2="527.83"
   y2="358.21"
   id="line729" />
		</g>
	</g>
	<path
   class="st103"
   d="M602.47,308.05h35.91c7.48,0,13.55-6.07,13.55-13.55V164.83c0-7.48-6.07-13.55-13.55-13.55h-31.42"
   id="path735" />
	<line
   class="st103"
   x1="445.33"
   y1="144.85"
   x2="376.76"
   y2="144.85"
   id="line737" />
	<path
   class="st103"
   d="M179.04,147.67h-75.27c-4.76,0-8.62,3.86-8.62,8.62v118.02c0,4.76,3.86,8.62,8.62,8.62h16.45"
   id="path739" />
</g>
<g
   id="g1617"
   transform="matrix(0.16239224,0,0,0.16239224,533.04732,280.3946)"><g
     id="g3622"
     transform="matrix(0.64177851,0,0,0.64177851,-1235.9095,-148.14018)"><rect
       style="fill:#3a76f0;fill-opacity:1;stroke:none;stroke-width:4.31055;stroke-linecap:round;stroke-linejoin:round;stroke-miterlimit:4;stroke-dasharray:none"
       id="rect3035"
       width="187.53772"
       height="190.63907"
       x="1656.281"
       y="-171.80095"
       ry="28.325691"
       transform="rotate(-89.018059)" /><circle
       style="fill:#3a76f0;fill-opacity:1;stroke:none;stroke-width:13.1498;stroke-linecap:round;stroke-linejoin:round"
       id="path2073"
       cx="150.27597"
       cy="-1957.8502"
       r="319.25687" /><path
       fill="#ffffff"
       d="m 79.323855,-2238.8853 6.51755,26.4002 a 263.67266,263.67266 0 0 0 -72.93075,30.1954 l -13.94263,-23.3476 a 286.77291,286.77291 0 0 1 80.35583,-33.248 z m 139.426375,0 -6.51755,26.4002 a 263.67266,263.67266 0 0 1 72.93074,30.1954 l 14.10762,-23.3476 a 288.83543,288.83543 0 0 0 -80.52081,-33.248 z m -318.3707,131.7538 a 288.34043,288.34043 0 0 0 -33.24784,80.4384 l 26.40027,6.5175 a 263.67266,263.67266 0 0 1 30.195315,-72.9307 z m -14.52014,150.1515 a 262.76517,262.76517 0 0 1 2.97001,-39.4355 l -26.89526,-4.125 a 290.40293,290.40293 0 0 0 0,87.0383 l 26.89526,-4.0425 a 263.59017,263.59017 0 0 1 -2.97001,-39.4353 z m 413.24668,248.575 -13.94265,-23.2653 a 262.18765,262.18765 0 0 1 -72.84824,30.1953 l 6.51758,26.4003 a 289.00044,289.00044 0 0 0 80.27331,-33.3303 z m 113.10862,-248.575 a 263.59017,263.59017 0 0 1 -2.97003,39.4353 l 26.89528,4.0425 a 290.40293,290.40293 0 0 0 0,-87.0383 l -26.89528,4.125 a 262.76517,262.76517 0 0 1 2.97003,39.4355 z m 18.7277,69.6307 -26.40027,-6.5175 a 263.17767,263.17767 0 0 1 -30.19528,73.0132 l 23.34772,14.0251 a 287.84543,287.84543 0 0 0 33.24783,-80.5208 z m -242.46996,190.5769 a 263.26017,263.26017 0 0 1 -78.8708,0 l -4.04254,26.8953 a 289.82544,289.82544 0 0 0 86.9559,0 z m 172.42676,-104.116 a 262.43516,262.43516 0 0 1 -55.77058,55.688 l 16.17018,21.9452 a 292.96046,292.96046 0 0 0 61.54561,-61.2982 z m -55.77058,-367.9538 a 262.84767,262.84767 0 0 1 55.77058,55.7706 l 21.94521,-16.3351 a 292.54796,292.54796 0 0 0 -61.38063,-61.3808 z m -367.953705,55.7706 a 262.84767,262.84767 0 0 1 55.77054,-55.7706 l -16.33513,-21.9453 a 292.54796,292.54796 0 0 0 -61.38066,61.3808 z m 460.519655,5.9401 -23.34772,14.0252 a 262.18765,262.18765 0 0 1 30.19528,72.8482 l 26.40027,-6.5175 a 287.84543,287.84543 0 0 0 -33.24783,-80.3559 z m -288.09293,-110.0562 a 263.26017,263.26017 0 0 1 78.8708,0 l 4.04256,-26.8952 a 289.82544,289.82544 0 0 0 -86.9559,0 z m -158.484095,501.1926 -56.183055,13.0351 13.117625,-56.1831 -26.482775,-6.1874 -13.11762,56.183 a 27.225276,27.225276 0 0 0 20.29521,32.7528 28.462789,28.462789 0 0 0 12.37512,0 l 56.183065,-12.9526 z m -63.938135,-73.5907 26.565265,6.105 9.07509,-38.9405 a 260.86766,260.86766 0 0 1 -29.287795,-71.4455 l -26.40027,6.5175 a 291.47546,291.47546 0 0 0 26.73027,69.053 z m 127.051275,58.9055 -38.94039,9.0751 6.18756,26.5653 28.62777,-6.6826 a 287.92793,287.92793 0 0 0 69.05321,26.7303 l 6.51758,-26.4003 a 261.28015,261.28015 0 0 1 -71.19822,-29.4528 z m 134.806375,-462.252 c -130.351325,0.083 -235.869895,105.7659 -235.869895,236.0347 a 236.5299,236.5299 0 0 0 36.21785,125.4013 l -22.68771,96.856 96.77347,-22.6878 c 110.303615,69.3833 256.000095,36.3004 325.383275,-73.9209 69.38324,-110.2208 36.38288,-255.9174 -73.83823,-325.383"
       id="path1607"
       style="stroke-width:0.825007" /><circle
       style="fill:#fefeff;fill-opacity:1;stroke:none;stroke-width:3.97743;stroke-linecap:round;stroke-linejoin:round;stroke-miterlimit:4;stroke-dasharray:none"
       id="path3392"
       cx="149.79845"
       cy="-1960.869"
       r="232.32033" /></g><g
     id="g11724"
     transform="translate(-610.85454,540.41542)"><g
       id="g3897"
       transform="rotate(-90,-1389.1492,-1922.495)"
       style="fill:#37afe2;fill-opacity:1"><rect
         style="fill:#37afe2;fill-opacity:1;stroke:none;stroke-width:2.76642;stroke-linecap:round;stroke-linejoin:round;stroke-miterlimit:4;stroke-dasharray:none"
         id="rect3035-7"
         width="120.35768"
         height="122.34806"
         x="1698.5527"
         y="-1589.3348"
         ry="18.17882"
         transform="rotate(-89.018059)" /><circle
         style="fill:#37afe2;fill-opacity:1;stroke:none;stroke-width:8.43926;stroke-linecap:round;stroke-linejoin:round"
         id="path2073-5"
         cx="-1371.5233"
         cy="-1917.3474"
         r="204.8922" /></g><g
       id="g3687"
       transform="matrix(3.560436,0,0,3.560436,-750.0024,-2728.0373)"><g
         id="g4013"
         transform="matrix(0.47824281,0,0,0.47824281,-234.69161,163.82123)"><circle
           cx="120"
           cy="120"
           r="120"
           fill="url(#linear-gradient)"
           id="circle3669"
           style="fill:url(#linear-gradient)" /><path
           d="m 81.229,128.772 14.237,39.406 c 0,0 1.78,3.687 3.686,3.687 1.906,0 30.255,-29.492 30.255,-29.492 L 160.932,81.483 81.737,118.6 Z"
           fill="#c8daea"
           id="path3671" /><path
           d="m 100.106,138.878 -2.733,29.046 c 0,0 -1.144,8.9 7.754,0 8.898,-8.9 17.415,-15.763 17.415,-15.763"
           fill="#a9c6d8"
           id="path3673" /><path
           d="M 81.486,130.178 52.2,120.636 c 0,0 -3.5,-1.42 -2.373,-4.64 0.232,-0.664 0.7,-1.229 2.1,-2.2 6.489,-4.523 120.106,-45.36 120.106,-45.36 0,0 3.208,-1.081 5.1,-0.362 a 2.766,2.766 0 0 1 1.885,2.055 9.357,9.357 0 0 1 0.254,2.585 c -0.009,0.752 -0.1,1.449 -0.169,2.542 -0.692,11.165 -21.4,94.493 -21.4,94.493 0,0 -1.239,4.876 -5.678,5.043 A 8.13,8.13 0 0 1 146.1,172.5 c -8.711,-7.493 -38.819,-27.727 -45.472,-32.177 a 1.27,1.27 0 0 1 -0.546,-0.9 c -0.093,-0.469 0.417,-1.05 0.417,-1.05 0,0 52.426,-46.6 53.821,-51.492 0.108,-0.379 -0.3,-0.566 -0.848,-0.4 -3.482,1.281 -63.844,39.4 -70.506,43.607 a 3.21,3.21 0 0 1 -1.48,0.09 z"
           fill="#ffffff"
           id="path3675" /></g></g></g></g></svg>
